<svg width="24" height="24" viewBox="0 0 24 24" fill="none" xmlns="http://www.w3.org/2000/svg">
<path d="M17.2421 12.5628C17.2674 15.2868 19.6317 16.1932 19.6579 16.2048C19.6379 16.2687 19.2802 17.4966 18.4123 18.7649C17.662 19.8614 16.8834 20.9539 15.6568 20.9765C14.4516 20.9987 14.064 20.2618 12.6861 20.2618C11.3086 20.2618 10.878 20.9539 9.73706 20.9988C8.55309 21.0436 7.65147 19.813 6.89504 18.7205C5.34929 16.4858 4.16801 12.4056 5.75416 9.65149C6.54213 8.28377 7.95028 7.41767 9.47871 7.39546C10.6413 7.37328 11.7387 8.17764 12.4495 8.17764C13.1598 8.17764 14.4933 7.21033 15.8952 7.35239C16.4821 7.37682 18.1295 7.58946 19.1874 9.13788C19.1021 9.19072 17.2217 10.2854 17.2421 12.5628ZM14.977 5.87391C15.6056 5.11304 16.0286 4.05384 15.9132 2.99994C15.0072 3.03635 13.9115 3.6037 13.2617 4.36416C12.6792 5.03757 12.1692 6.11542 12.3068 7.14846C13.3167 7.22659 14.3484 6.63526 14.977 5.87391Z" fill="white"/>
</svg>
