<svg width="24" height="24" viewBox="0 0 24 24" fill="none" xmlns="http://www.w3.org/2000/svg">
<path d="M6.98916 13.8775L6.36261 16.2165L4.07258 16.2649C3.38819 14.9956 3 13.5432 3 11.9999C3 10.5075 3.36295 9.10009 4.00631 7.86087H4.0068L6.04557 8.23465L6.93868 10.2612C6.75175 10.8061 6.64987 11.3911 6.64987 11.9999C6.64994 12.6605 6.76961 13.2935 6.98916 13.8775Z" fill="#FBBB00"/>
<path d="M20.8426 10.3186C20.946 10.863 20.9999 11.4253 20.9999 11.9999C20.9999 12.6442 20.9321 13.2728 20.8031 13.879C20.3649 15.9421 19.2201 17.7436 17.6343 19.0184L17.6338 19.0179L15.0659 18.8869L14.7024 16.6181C15.7547 16.001 16.5771 15.0352 17.0103 13.879H12.1978V10.3186H17.0805H20.8426Z" fill="#518EF8"/>
<path d="M17.6335 19.018L17.634 19.0185C16.0917 20.2582 14.1324 21 11.9996 21C8.57225 21 5.59238 19.0843 4.07227 16.2651L6.98885 13.8777C7.74889 15.9061 9.70564 17.3501 11.9996 17.3501C12.9857 17.3501 13.9094 17.0835 14.7021 16.6182L17.6335 19.018Z" fill="#28B446"/>
<path d="M17.7446 5.07196L14.829 7.45892C14.0087 6.94613 13.0389 6.64991 12 6.64991C9.65407 6.64991 7.66072 8.16011 6.93875 10.2613L4.00684 7.86096H4.00635C5.50421 4.97307 8.52166 3 12 3C14.1837 3 16.186 3.77786 17.7446 5.07196Z" fill="#F14336"/>
</svg>
