<svg width="80" height="80" viewBox="0 0 80 80" fill="none" xmlns="http://www.w3.org/2000/svg">
<rect width="80" height="80" rx="8" fill="#6B7EEC"/>
<path d="M46 38.0009V27.6609C46 26.6009 45.58 25.5809 44.82 24.8409L41.4 21.4209C40.62 20.6409 39.36 20.6409 38.58 21.4209L35.18 24.8209C34.42 25.5809 34 26.6009 34 27.6609V30.0009H26C23.8 30.0009 22 31.8009 22 34.0009V54.0009C22 56.2009 23.8 58.0009 26 58.0009H54C56.2 58.0009 58 56.2009 58 54.0009V42.0009C58 39.8009 56.2 38.0009 54 38.0009H46ZM30 54.0009H26V50.0009H30V54.0009ZM30 46.0009H26V42.0009H30V46.0009ZM30 38.0009H26V34.0009H30V38.0009ZM42 54.0009H38V50.0009H42V54.0009ZM42 46.0009H38V42.0009H42V46.0009ZM42 38.0009H38V34.0009H42V38.0009ZM42 30.0009H38V26.0009H42V30.0009ZM54 54.0009H50V50.0009H54V54.0009ZM54 46.0009H50V42.0009H54V46.0009Z" fill="white"/>
</svg>
