<svg width="273" height="400" viewBox="0 0 273 400" fill="none" xmlns="http://www.w3.org/2000/svg">
<g clip-path="url(#clip0_232_5522)">
<path d="M61.9432 157.529C62.3461 163.49 62.7521 169.451 63.155 175.412C63.0512 175.577 63.0573 175.739 63.1733 175.898C63.68 185.711 63.3015 195.521 63.1916 205.334C63.1855 205.688 63.1764 206.042 63.1703 206.399C62.9322 212.186 62.6422 217.97 62.4652 223.761C62.2241 231.69 61.3664 239.571 60.7467 247.471C60.469 251.018 60.2065 254.564 60.0417 258.117C59.1504 277.115 59.4648 296.124 59.5777 315.134C59.5899 317.371 59.6296 319.609 59.6021 321.843C59.5869 323.064 60.118 323.629 61.3206 323.903C64.2477 324.575 67.1871 324.331 70.1264 324.193C72.0555 324.102 73.9784 323.882 75.9075 323.793C77.8396 323.705 79.6191 324.083 80.4432 326.119C81.1818 327.945 80.3791 331.012 78.9567 332.224C75.5137 335.154 71.4908 336.68 67.0345 337.15C63.6006 337.513 60.1668 337.864 56.733 338.203C55.7227 338.304 54.6879 338.234 54.1477 339.412C53.934 339.876 53.3785 340.053 52.8566 340.111C50.3354 340.383 47.8416 340.926 45.2777 340.752C42.4391 340.56 41.1815 339.61 40.684 336.83C40.1254 333.707 40.2872 330.545 40.623 327.407C40.7237 326.461 40.8275 325.692 40.04 324.917C39.2067 324.096 38.5322 323.751 37.4791 324.547C35.7118 325.884 34.0758 327.181 32.7389 329.117C30.7824 331.949 27.4493 333.149 24.1009 333.811C22.1078 334.208 20.0658 334.174 18.0513 333.683C15.4995 333.06 14.8921 332.398 14.7182 329.755C14.6724 329.046 14.6785 328.332 14.6602 327.624C14.8982 327.664 15.1333 327.7 15.3713 327.737C15.6796 329.355 16.87 330.029 18.2893 330.478C21.3813 331.464 24.2993 331.015 27.0494 329.385C30.6237 327.264 33.9842 324.822 37.415 322.484C38.9259 321.455 39.3349 320.259 38.8984 318.611C39.0999 315.864 39.1273 313.126 38.5749 310.412C38.4711 310.15 38.3704 309.884 38.2666 309.622C38.3063 309.228 38.346 308.831 38.3856 308.437C38.7305 307.033 38.5596 305.608 38.5016 304.198C37.8454 287.984 37.7019 271.767 37.9522 255.541C38.114 245.102 38.7855 234.669 38.4955 224.225C38.4528 222.708 38.5779 221.178 38.1048 219.698C38.404 218.764 38.3734 217.867 37.8301 217.021C37.7263 216.514 37.6226 216.008 37.5188 215.501C37.6195 214.637 37.3967 213.896 36.6489 212.916C36.4261 214.039 36.1758 214.756 36.3559 215.538C36.188 216.545 36.0201 217.552 35.8522 218.563C35.7973 218.764 35.7424 218.968 35.6874 219.17C35.5653 219.817 35.4463 220.464 35.3242 221.114C35.0953 221.246 35.0342 221.435 35.1288 221.679C35.0312 221.804 34.9823 221.948 34.9884 222.106L34.7381 222.042L34.9884 222.07C34.9091 222.579 34.8267 223.089 34.7473 223.599C34.0056 224.035 34.0392 224.615 34.4299 225.265C34.1368 228.385 33.6729 231.492 33.856 234.639C33.8469 234.984 33.8408 235.329 33.8316 235.674C33.6241 245.105 33.3219 254.534 33.2364 263.968C33.1082 278.171 33.1296 292.376 33.0991 306.582C33.0991 307.589 32.9495 308.614 33.3188 309.597C33.3371 309.988 33.3555 310.379 33.3738 310.769C31.4997 315.955 29.5523 321.077 23.6858 323.137C21.4179 323.156 19.1501 323.171 16.8822 323.189C16.5373 323.134 16.1894 323.079 15.8445 323.021C15.2981 322.878 14.7517 322.734 14.2054 322.588C13.8849 317.197 13.5644 311.804 13.247 306.414C13.485 305.44 13.5186 304.479 13.0028 303.566C12.664 294.241 11.8704 284.95 11.0157 275.665C10.1855 266.645 10.4419 257.632 10.9058 248.615C11.15 243.857 11.4339 239.101 11.7025 234.349C12.2275 233.076 12.2244 231.764 11.9711 230.436C12.5663 223.816 12.9631 217.198 11.9284 210.584C12.1695 209.891 12.1634 209.226 11.6842 208.618C11.6659 207.617 11.614 206.622 11.2355 205.676C11.5194 205.184 11.4827 204.73 11.0768 204.317C10.5792 200.908 10.0787 197.499 9.58114 194.092C9.75513 193.39 9.74597 192.716 9.25455 192.121C8.58305 190.188 8.86691 188.113 8.37549 186.156C8.55557 185.436 8.52505 184.749 8.04584 184.136C7.38349 178.715 6.68147 173.3 6.06795 167.873C5.39645 161.915 5.46971 155.948 6.06795 149.987C6.25109 148.158 6.39455 146.428 5.27436 144.743C4.42887 143.47 4.36783 141.892 4.34341 140.344C4.30068 137.716 4.4655 135.076 3.95577 132.473C4.31289 131.523 4.28236 130.595 3.81536 129.686C3.44603 120.639 3.07365 111.592 2.70738 102.548C3.10113 101.605 3.09502 100.674 2.60971 99.7612C2.49067 95.1858 1.61466 90.6897 1.08661 86.1601C0.235021 78.8835 -0.262502 71.6007 0.177028 64.2874C0.466996 59.4678 1.60245 54.8436 4.65169 50.9245C7.50253 47.2617 11.1958 45.2777 15.9421 45.3815C18.5793 45.4395 21.2165 45.3235 23.8567 45.2838C24.2688 45.3754 24.6778 45.467 25.0868 45.5585C27.2265 49.5723 30.4741 51.9653 35.077 52.3316C37.882 52.5544 40.6871 52.8718 43.5104 52.6063C44.5208 52.6307 45.528 52.6551 46.5383 52.6795C50.7077 55.918 54.8985 59.1199 59.7761 61.2656C63.506 62.9078 66.0119 66.0638 68.9483 68.6858C69.3512 69.1314 69.751 69.574 70.1539 70.0196C71.3565 71.6434 72.3668 73.4229 73.9296 74.7598V74.7476C74.0151 76.0113 74.7598 76.9605 75.4527 77.9312C75.6938 78.5019 75.7243 79.1704 76.2371 79.616C79.1795 86.8011 81.4657 94.1999 83.2849 101.815C83.6695 101.58 83.9106 101.519 83.993 101.373C87.3261 95.3353 90.6379 89.2887 93.974 83.2544C94.5356 82.238 94.3433 81.5939 93.2842 81.0872C89.2613 79.1673 85.2567 77.2078 81.249 75.2635C81.0567 74.8544 80.7209 74.6286 80.2997 74.5095C79.9273 73.0994 80.1532 71.7625 80.5683 70.3706C81.7129 66.5217 83.178 62.7674 83.9198 58.8024C84.5516 58.2866 84.4173 57.5602 84.457 56.8795C86.5295 52.1271 87.6191 47.0542 89.2338 42.1522C90.4059 38.5871 91.3948 34.964 92.5425 31.3898C93.5925 28.1147 94.8592 27.6751 98.0091 29.2288C100.674 30.5413 102.932 32.5039 105.701 33.6821C110.572 35.7576 115.209 38.3338 119.845 40.8885C122.791 42.5093 123.044 43.1198 121.915 46.2209C119.83 51.9409 117.706 57.6426 115.6 63.3534C114.708 63.7868 114.372 64.5926 114.018 65.4625C113.765 66.0791 113.597 67.1016 112.446 66.7415C114.931 60.0752 117.437 53.4182 119.891 46.7428C120.962 43.834 120.679 43.077 117.941 41.6058C111.433 38.1079 104.913 34.6313 98.3693 31.2066C95.6436 29.7812 94.3342 30.3367 93.33 33.3127C92.3929 36.0995 91.6085 38.9381 90.7447 41.7493C88.0281 50.5887 85.2872 59.4221 82.5951 68.2707C81.6244 71.4634 81.9327 72.1135 84.8446 73.5939C87.2925 74.8361 89.7527 76.054 92.2189 77.2566C93.4002 77.8335 94.5784 78.6912 95.8145 78.8011C97.1484 78.9201 96.9317 76.7316 98.2533 76.3959C98.6623 76.5424 99.0713 76.6858 99.4803 76.8323C102.148 78.1387 104.324 79.9762 105.765 82.6164C105.97 83.6451 106.644 83.9503 107.609 83.8068C102.762 96.0099 99.6208 108.915 92.6279 120.236C90.9706 122.919 89.3498 125.614 87.0361 127.812C84.3471 130.37 82.3753 130.742 79.0391 129.152C75.4405 127.439 72.843 124.589 70.6514 121.368C68.5301 118.255 66.8635 114.885 65.4473 111.393C65.1146 110.575 65.0322 109.614 64.1897 109.016C63.2893 109.553 63.6556 110.453 63.5823 111.177C62.1416 125.153 62.627 139.178 62.5445 153.192C62.5354 154.501 62.7491 155.838 62.2546 157.114C62.0073 157.147 61.8608 157.254 61.9616 157.532L61.9432 157.529ZM45.879 159.98C46.7459 160.096 47.5944 160.12 48.33 159.528C52.0599 158.976 55.6555 157.892 59.2481 156.784C60.704 156.335 61.5129 155.612 61.3511 153.973C61.2412 152.865 61.3175 151.739 61.3358 150.622C61.519 139.249 60.7376 127.861 61.754 116.497C62.2241 111.235 62.6422 105.97 63.0817 100.707C63.8998 102.441 64.4126 104.172 64.9101 105.905C66.3813 111.021 68.5881 115.813 71.4511 120.285C73.4443 123.395 75.9166 126.102 79.2467 127.836C82.1983 129.375 84.0327 129.03 86.383 126.695C88.1289 124.964 89.4902 122.94 90.7538 120.849C97.2705 110.057 101.458 98.3113 104.892 86.2548C105.124 85.4429 105.21 84.6737 104.831 83.8862C103.937 82.0304 102.853 80.3547 101.025 79.2467C98.6227 77.7938 98.4334 77.7724 97.0996 80.1929C93.3758 86.9568 89.71 93.7542 86.0075 100.53C85.104 102.182 84.1578 103.809 82.9369 105.963C82.4882 104.147 82.2013 102.997 81.9236 101.843C80.0037 93.9343 77.8976 86.0747 74.2409 78.7583C70.8559 71.9822 66.0516 66.3263 59.4159 62.6117C55.4999 60.4232 51.6418 58.2042 48.0919 55.4785C46.5658 54.3064 45.0183 53.757 43.0587 53.873C40.6321 54.0164 38.1781 53.9127 35.7485 53.7478C32.3146 53.5159 28.8961 52.6826 26.79 49.8378C24.6839 46.987 22.1352 46.3033 18.9151 46.6574C17.7094 46.7886 16.4763 46.6787 15.2584 46.6848C11.9253 46.7031 9.14161 48.0004 6.82492 50.3415C3.83673 53.3632 2.48151 57.1511 1.82832 61.2382C1.03777 66.1859 1.08356 71.1612 1.42542 76.1395C1.94125 83.6451 2.97293 91.0957 3.90693 98.5555C3.92524 98.9004 3.94356 99.2453 3.96187 99.5872C3.97408 101.11 3.93745 102.636 4.0046 104.16C4.50518 115.737 5.16448 127.311 5.4636 138.892C5.55822 142.618 6.76998 145.591 9.11109 148.29C14.8799 154.947 22.0833 158.933 30.8587 160.01C35.8126 161.018 40.7695 160.993 45.7234 160.001L45.8851 159.974L45.879 159.98ZM63.4877 335.246C68.3317 335.001 72.8155 333.506 77.107 331.339C78.4287 330.67 79.3932 329.678 79.8327 328.231C80.3486 326.54 79.6557 325.21 77.9647 324.709C76.7713 324.355 75.5504 324.511 74.3386 324.575C70.5965 324.767 66.7628 325.539 63.1306 324.715C60.2675 324.065 58.3782 325.182 56.2904 326.486C56.1195 326.592 55.9852 326.751 55.8264 326.876C52.1393 329.819 48.2323 329.59 44.185 327.716C43.4128 327.359 42.784 326.495 41.7371 326.876C40.9313 328.924 40.9404 331.052 40.9923 333.179C41.0564 335.792 42.3658 337.315 44.9603 337.663C46.6726 337.892 48.3941 337.813 50.1003 337.431C52.768 336.833 55.4449 336.28 58.1187 335.706C59.9196 335.706 61.7357 335.89 63.4847 335.249L63.4877 335.246Z" fill="#6B7EEC"/>
<path d="M185.699 383.441C188.888 384.207 192.139 383.991 195.374 384.024C196.314 384.033 197.291 384.094 197.737 385.059C198.228 386.118 197.789 387.034 196.971 387.779C193.207 391.2 189.221 394.375 184.588 396.487C179.887 398.63 173.187 394.668 172.223 389.418C171.985 388.114 171.801 386.802 170.99 385.721C170.574 385.169 170.025 384.577 169.201 384.919C168.484 385.218 168.661 385.941 168.658 386.515C168.636 389.866 168.648 393.218 168.645 396.569C168.645 397.28 168.645 397.992 168.612 398.7C168.575 399.554 168.099 399.969 167.247 399.991C166.35 400.015 165.581 399.829 165.526 398.755C165.465 397.641 165.483 396.52 165.483 395.406C165.477 392.665 165.508 389.921 165.465 387.18C165.398 382.764 164.919 382.324 160.584 382.3C158.558 382.288 156.479 382.455 154.516 382.08C152.584 381.708 150.765 380.749 148.519 379.907C148.519 382.208 148.516 384.21 148.519 386.213C148.519 387.275 148.503 388.285 147.023 388.34C145.546 388.395 144.838 387.843 144.776 386.176C144.685 383.64 144.697 381.1 144.734 378.561C144.783 375.383 144.328 372.334 143.031 369.389C141.602 366.147 141.346 362.826 142.194 359.298C142.741 357.03 144.273 355.65 145.576 354.008C145.677 353.99 145.781 353.984 145.875 353.95C145.97 353.916 146.055 353.855 146.144 353.807C144.685 351.914 144.889 349.628 144.731 347.467C144.245 340.883 143.473 334.33 142.484 327.81C141.572 321.788 140.57 315.775 140.473 309.68C140.32 300.095 141.572 290.652 143.659 281.302C144.364 278.143 145.674 275.085 145.604 271.785C145.53 268.232 145.445 264.67 145.103 261.136C144.114 250.932 142.884 240.75 141.974 230.537C141.572 226.019 140.357 221.841 138.687 217.65C135.497 209.644 135.8 201.561 139.035 193.576C141.025 188.668 143.44 183.98 146.083 179.399C148.119 175.873 148.036 175.925 151.458 178.33C158.472 183.26 166.182 186.037 174.878 185.625C179.112 185.427 182.778 183.91 185.882 181.016C186.361 180.571 186.526 179.701 187.432 179.801C188.067 180.25 188.253 180.967 188.595 181.578C191.916 187.536 193.338 194.123 194.514 200.71C196.931 214.24 198.008 227.903 197.627 241.662C197.532 245.121 197.087 248.548 196.562 251.964C194.758 263.721 192.194 275.326 189.117 286.803C185.631 299.805 183.254 312.942 182.774 326.418C182.427 336.164 181.929 345.904 181.474 355.644C181.404 357.164 181.206 358.678 181.068 360.195C180.931 361.736 180.14 362.851 178.831 363.623C177.045 364.676 175.147 365.262 173.035 365.222C172.165 365.207 171.289 364.694 170.428 365.112C170.373 365.869 171.237 365.735 171.359 366.26C172.589 372.09 175.354 377.26 178.324 382.327C179.292 383.975 180.354 385.584 181.654 387.025C183.696 389.289 186.575 389.412 189.474 388.117C190.466 387.675 190.616 386.79 190.497 385.81C190.384 384.876 189.721 384.723 188.968 384.699C187.725 384.662 186.547 384.47 185.68 383.454L185.699 383.429V383.441ZM166.524 364.679C167.043 363.449 165.975 362.506 165.959 361.288C165.898 356.316 165.563 351.346 165.312 346.377C165.056 341.307 164.891 336.228 164.488 331.168C163.866 323.339 164.009 315.537 165.16 307.775C166.484 298.841 168.148 289.953 169.311 280.997C170.242 273.855 169.122 266.731 168.188 259.601C167.412 260.675 166.603 261.673 166.814 263.068C166.06 265.592 165.706 268.248 164.339 270.567C163.432 271.221 163.279 272.265 162.996 273.22C161.531 278.198 160.523 283.28 160.218 288.451C159.501 300.596 158.985 312.753 158.316 324.898C157.849 333.399 157.196 341.893 156.778 350.397C156.671 352.601 155.807 353.794 153.735 354.258C153.372 354.341 152.825 354.304 152.804 354.802C152.789 355.156 153.244 355.073 153.521 355.113C154.236 356.905 155.13 358.648 155.627 360.497C156.772 364.764 159.431 368.296 161.137 372.285C161.396 372.893 161.985 373.576 162.812 373.286C163.438 373.067 163.612 372.361 163.545 371.736C163.234 368.824 164.671 366.669 166.518 364.679H166.524Z" fill="#F4795E"/>
<path d="M171.362 366.269C171.24 365.744 170.376 365.878 170.431 365.121C171.292 364.703 172.168 365.216 173.038 365.231C175.147 365.271 177.045 364.682 178.834 363.632C180.143 362.86 180.934 361.746 181.071 360.204C181.209 358.687 181.407 357.173 181.477 355.653C181.932 345.913 182.43 336.173 182.778 326.428C183.257 312.955 185.638 299.815 189.12 286.812C192.194 275.335 194.761 263.73 196.565 251.973C197.09 248.557 197.535 245.13 197.63 241.671C198.012 227.915 196.931 214.25 194.517 200.719C193.342 194.132 191.919 187.545 188.598 181.587C188.256 180.977 188.07 180.256 187.435 179.811C186.529 179.71 186.364 180.58 185.885 181.025C182.784 183.919 179.118 185.436 174.881 185.634C166.185 186.043 158.472 183.266 151.461 178.339C148.039 175.934 148.122 175.882 146.086 179.408C143.443 183.989 141.025 188.678 139.038 193.586C135.803 201.57 135.501 209.653 138.69 217.659C140.36 221.85 141.575 226.028 141.978 230.546C142.884 240.756 144.117 250.938 145.106 261.145C145.448 264.68 145.533 268.242 145.607 271.795C145.677 275.094 144.367 278.152 143.662 281.312C141.575 290.661 140.323 300.105 140.476 309.689C140.573 315.784 141.575 321.797 142.487 327.819C143.476 334.339 144.248 340.892 144.734 347.476C144.892 349.637 144.688 351.926 146.147 353.816C146.058 353.865 145.973 353.926 145.878 353.959C145.784 353.993 145.68 353.999 145.579 354.017C144.599 353.291 144.343 352.305 144.273 351.111C143.696 341.066 142.255 331.122 140.781 321.175C139.386 311.78 139.563 302.333 140.833 292.916C141.636 286.971 142.942 281.135 144.425 275.323C145.366 271.639 144.868 267.848 144.615 264.106C143.98 254.68 142.789 245.31 141.788 235.918C141.422 232.484 141.031 229.053 140.696 225.616C140.512 223.751 139.688 222.112 138.98 220.434C137.115 215.999 135.855 211.438 135.696 206.591C135.522 201.277 137.112 196.378 139.075 191.556C139.38 190.805 139.661 190.027 140.079 189.337C141.068 187.707 141.028 186.333 139.936 184.612C136.941 179.896 134.283 174.976 131.816 169.955C130.254 166.771 129.594 163.466 129.61 159.946C129.646 151.29 130.654 142.704 131.572 134.121C132.558 124.933 133.715 115.761 134.976 106.607C135.907 99.8527 139.505 97.0751 146.342 97.7131C147.963 97.8626 148.47 97.3132 148.857 95.9519C149.242 94.5906 149.709 93.2109 150.405 91.99C151.684 89.7496 151.192 88.0617 149.413 86.3219C146.699 83.6725 144.572 80.6111 143.415 76.9086C139.746 65.1573 144.679 54.1324 155.896 49.1725C157.849 48.3087 159.83 47.5242 161.918 47.0358C163.313 47.0847 164.702 47.0603 166.039 46.5841C171.899 46.8405 176.508 49.7005 180.641 53.5739C182.014 54.8619 182.61 56.5682 183.284 58.2408C183.373 60.4629 184.075 62.6422 183.776 64.8948C182.826 67.1169 182.381 69.3847 183.016 71.793C183.226 72.5896 183.58 73.0261 184.456 72.788C184.939 72.7484 185.418 72.7087 185.9 72.6721C187.02 72.9864 188.162 73.2245 188.769 71.8754C189.206 70.9078 188.421 69.9097 186.807 69.2962C186.446 69.1589 186.01 69.2138 185.61 69.1802C185.277 68.8933 185.283 68.4904 185.25 68.1028C185.72 68.2615 186.184 68.4507 186.663 68.5728C188.238 68.9757 189.462 69.8029 189.581 71.5305C189.706 73.3588 189.599 75.1963 187.365 75.88C187.283 75.8312 187.188 75.7915 187.115 75.7305C187.051 75.6786 187.011 75.5962 186.962 75.529C187.701 75.1444 188.94 74.9704 188.568 73.8594C188.211 72.7941 187.051 73.4107 186.233 73.4016C185.845 73.3985 185.457 73.5267 185.07 73.5939C183.986 73.426 183.275 73.7526 183.205 74.9674C183.11 76.6004 182.72 78.1814 182.228 79.729C182.036 80.3364 181.987 81.2032 180.772 81.0842C180.604 79.7198 180.446 78.3157 180.256 76.9178C180.082 75.6236 179.56 74.4821 178.162 74.244C176.725 73.9968 175.568 74.656 174.909 75.9746C174.411 76.9727 174.005 78.0166 173.596 79.0544C171.637 84.0449 168.768 88.4524 164.973 92.2159C162.086 95.0789 159.849 96.6692 155.322 93.3697C154.327 95.256 154.559 97.3224 154.297 99.2911L154.275 99.3796C154.059 99.9016 153.991 100.417 154.306 100.927L154.287 101.184L154.532 101.287C155.902 102.545 157.526 103.235 159.373 103.412C160.355 104.141 161.509 103.918 162.593 103.921C166.222 103.928 169.854 103.857 173.483 103.815C174.155 104.129 174.753 104.572 174.893 105.316C175.272 107.291 176.7 108.442 178.144 109.571C180.064 111.076 182.018 112.538 183.968 114.003C184.615 114.488 185.241 115.05 186.08 115.175C188.708 115.569 190.381 117.318 191.934 119.244C195.228 123.322 197.386 128.044 199.501 132.775C201.659 137.597 203.564 142.524 205.316 147.511C206.286 150.277 206.32 150.249 208.795 148.796C218.163 143.287 227.744 138.144 236.855 132.201C237.017 132.097 237.246 132.091 237.441 132.039C237.826 132.106 238.21 132.17 238.595 132.238C240.744 133.141 242.63 134.31 243.155 136.825C243.149 137.28 243.14 137.732 243.134 138.186C238.604 145.857 233.192 152.831 226.157 158.341C220.385 162.858 214.015 166.457 207.358 169.567C203.927 171.17 201 171.112 198.152 168.459C196.009 166.463 193.705 164.641 191.303 162.596C190.109 164.842 190.234 167.208 190.06 169.43C189.853 172.094 189.621 174.692 188.348 177.082C187.863 177.994 187.985 178.767 188.476 179.649C193.683 188.992 195.237 199.324 196.644 209.708C197.477 215.855 197.822 222.036 198.271 228.214C199.223 241.314 197.383 254.149 194.523 266.88C191.812 278.949 188.809 290.948 185.903 302.968C184.447 308.993 184.163 315.226 183.812 321.403C183.092 334.08 182.469 346.765 181.95 359.45C181.859 361.663 180.528 362.927 179.371 364.426C179.133 364.432 178.941 364.496 178.935 364.786C176.481 365.653 173.856 365.634 171.356 366.275L171.362 366.269ZM130.931 161.39C130.827 161.549 130.837 161.698 130.956 161.845C131.014 164.21 131.609 166.432 132.604 168.581C135.082 173.932 138.022 179.026 141.047 184.075C141.288 184.478 141.498 184.993 142.182 184.819C143.678 182.191 145.103 179.502 146.712 176.929C147.508 175.653 147.63 174.625 146.815 173.324C146.11 172.201 145.894 170.867 145.927 169.518C145.949 168.606 145.973 167.684 145.485 166.854C143.546 163.575 143.516 159.959 144.395 156.512C145.604 151.769 144.725 147.514 142.609 143.314C141.971 142.048 141.446 140.723 140.833 139.441C138.327 134.219 135.965 128.947 135.186 123.126C135.107 122.537 135.171 121.869 134.487 121.13C133.33 128.666 132.674 135.937 131.932 143.195C131.481 147.633 131.066 152.074 130.995 156.54C130.736 157.276 130.748 158.02 130.943 158.768C130.943 159.641 130.937 160.511 130.937 161.384L130.931 161.39ZM135.791 116.237C135.806 116.588 135.824 116.939 135.839 117.287C136.276 123.923 137.698 130.281 140.741 136.264C142.347 139.417 143.653 142.725 145.048 145.982C147.447 151.592 148.348 157.443 147.746 163.514C147.606 164.925 147.398 166.329 147.209 167.736C146.764 171.038 147.89 173.74 150.435 175.812C155.899 180.262 162.117 183.031 169.122 183.977C171.621 184.716 174.121 184.804 176.621 183.962C182.756 183.183 186.492 179.679 188.253 173.843C188.885 171.75 188.644 169.604 188.907 167.492C189.169 165.382 190.149 163.157 189.526 161.198C188.87 159.128 186.742 157.782 185.274 156.107C181.648 151.968 178.361 147.606 175.574 142.835C171.222 135.375 173.416 119.967 183.257 115.178C181.291 113.637 179.368 112.157 177.473 110.64C175.971 109.434 174.384 108.301 173.883 106.247C173.572 104.978 172.488 104.929 171.441 104.944C168.694 104.99 165.95 105.039 163.203 105.1C160.307 105.164 157.538 104.651 154.95 103.308C154.583 102.89 154.229 102.878 154.113 103.461C153.997 104.044 153.985 104.663 154.391 105.188C154.425 108.75 154.922 112.263 155.493 115.767C157.12 125.788 159.888 135.552 162.205 145.417C163.27 149.956 164.506 154.464 164.989 159.113C165.239 161.527 164.326 162.138 162.205 160.856C158.039 158.335 154.593 155.163 153.283 150.173C151.141 142.008 150.02 133.672 149.071 125.312C148.418 119.574 147.987 113.808 147.459 108.054C147.847 106.739 147.777 105.411 147.539 104.083C147.569 103.592 147.603 103.097 147.633 102.606C147.746 102.49 147.756 102.365 147.661 102.234C147.722 101.635 147.789 101.034 147.844 100.436C147.92 99.5872 147.542 99.1477 146.684 99.0103C142.054 98.2655 137.597 100.188 136.584 104.849C135.763 108.625 135.443 112.395 135.797 116.231L135.791 116.237ZM205.703 152.166C205.053 150.408 204.525 148.992 204.006 147.572C201.259 140.03 198.341 132.564 194.532 125.474C193.226 123.044 191.736 120.743 189.871 118.719C187.441 116.085 184.325 115.78 181.392 117.846C179.527 119.158 178.159 120.926 177.204 122.989C173.618 130.742 173.578 138.241 178.605 145.512C184.313 153.765 191.132 160.941 198.784 167.403C201.409 169.619 203.881 169.787 206.875 168.389C212.415 165.801 217.647 162.709 222.717 159.305C230.482 154.092 236.019 146.846 241.143 139.23C242.508 137.204 241.644 134.988 239.404 134.026C237.795 133.336 236.513 133.916 235.152 134.789C225.668 140.876 215.648 146.052 205.703 152.169V152.166ZM146.437 154.715C144.74 158.536 144.801 162.376 146.437 164.436C146.702 161.289 146.764 158.261 146.437 154.715Z" fill="#6B7EEC"/>
<path d="M50.1796 0C51.1228 0.311334 52.0995 0.54636 53.006 0.946211C56.9191 2.67686 58.0515 6.08627 56.0644 10.0115C55.3471 10.2557 54.6268 10.4999 53.9065 10.7471C50.9 10.796 50.4665 11.2355 50.7504 13.9978C50.8114 14.5991 50.903 15.2065 51.0861 15.7804C51.7515 17.859 51.4555 19.73 50.1308 21.4973C49.267 22.6511 48.9038 24.0124 48.9129 25.4836C48.919 26.5702 49.2029 27.2142 50.4543 27.1349C52.1636 27.025 53.879 27.0036 55.5944 26.9426C57.0442 26.9243 58.6009 27.8217 59.889 26.439C60.4475 24.3909 59.1778 23.698 57.5448 23.2707C57.6028 23.0937 57.6181 22.9105 57.5845 22.7274C60.3407 23.6675 60.9267 24.3726 60.7924 26.5946C60.649 28.951 60.1484 29.4974 57.6089 30.0559C57.6394 29.885 57.6455 29.711 57.6181 29.5401C58.726 29.5218 59.4647 29.0395 59.8004 27.9712C59.0007 27.3028 58.2285 27.5622 57.4654 27.6965C56.858 27.7148 56.2476 27.7362 55.6402 27.7545C54.0194 27.727 52.3986 27.7179 50.7809 27.669C49.4745 27.6294 48.977 28.2429 49.0075 29.5187C49.0258 30.3154 48.9221 31.1456 48.7054 31.9117C48.5161 32.5863 48.1132 33.2578 47.2616 33.2731C46.3948 33.2853 46.0163 32.6626 45.8606 31.927C45.589 30.6389 45.3295 29.3447 45.1433 28.0414C44.9541 26.7106 44.4077 25.682 42.9976 25.4409C41.5142 25.1875 40.104 25.2486 39.6095 27.0952C39.3867 27.1868 39.3226 27.3394 39.4142 27.5561C39.3714 28.4657 39.1364 29.415 39.3226 30.2757C39.7652 32.3116 38.8281 34.7412 41.0807 36.3101C41.6942 36.7374 41.1051 37.4059 40.7022 37.8637C39.1517 39.6401 37.0151 40.6199 35.1867 41.9935C32.6656 43.8889 30.1505 43.779 27.4095 43.2571C26.8113 43.1442 26.2191 43.0007 25.627 42.8695C25.2302 42.2865 24.5709 42.2987 23.9818 42.1552C20.1542 39.5699 18.0298 35.9682 17.1599 31.4386C16.7631 29.3753 15.7497 27.4279 15.0019 25.4317C13.4544 21.305 13.6376 17.2485 15.6093 13.3233C17.0225 10.5121 18.5121 7.73451 20.0596 4.99355C21.4728 2.49678 23.5728 0.802753 26.3656 0.0305229C34.3046 0.0213661 42.2406 0.0122092 50.1796 0Z" fill="#6B7EEC"/>
<path d="M243.14 138.186C243.146 137.732 243.155 137.28 243.161 136.825C244.367 136.355 245.468 135.732 246.815 135.497C250.865 134.795 254.876 133.819 258.609 132.027C260.834 130.959 263.367 130.394 265.055 128.364C265.345 128.346 265.641 128.355 265.928 128.303C266.325 128.233 266.77 128.019 266.538 127.58C266.291 127.11 265.861 127.433 265.577 127.674C265.363 127.858 265.22 128.126 265.046 128.355C264.658 128.45 264.246 128.495 263.883 128.651C262.125 129.402 260.373 130.174 258.627 130.953C258.233 131.127 257.855 131.236 257.556 130.834C257.25 130.418 257.577 130.131 257.784 129.79C258.175 129.146 259.298 129.143 259.265 128.019C257.287 127.769 255.749 130.544 253.499 129.011C254.363 127.125 256.676 126.368 256.524 124.103C257.006 124.051 257.452 123.948 257.44 123.325C257.44 123.255 257.321 123.13 257.256 123.13C256.622 123.123 256.576 123.615 256.49 124.07C256.1 124.378 255.648 124.637 255.33 125.007C252.812 127.937 249.455 129.194 245.777 129.494C243.054 129.713 240.698 130.534 238.607 132.235C238.222 132.167 237.838 132.103 237.453 132.036C238.363 129.561 240.75 129.188 242.792 128.471C244.199 127.977 245.777 127.977 247.275 127.723C250.502 127.177 253.291 125.846 255.159 123.047C255.962 121.848 256.942 120.834 257.986 119.867C258.361 119.519 258.816 119.232 259.353 119.552C259.936 119.9 260.187 120.453 260.022 121.109C259.576 122.861 258.908 124.524 257.339 126.24C259.277 126.38 259.894 125.352 260.547 124.595C261.539 123.447 262.393 122.18 263.269 120.935C263.685 120.346 264.09 119.76 264.731 119.415C265.299 119.113 265.916 119.076 266.444 119.5C266.892 119.861 266.926 120.413 266.767 120.901C266.422 121.957 265.998 122.986 265.607 124.03C265.424 124.253 265.244 124.473 265.061 124.695C264.991 124.729 264.908 124.753 264.854 124.805C264.82 124.836 264.832 124.915 264.823 124.97C264.902 124.878 264.979 124.784 265.058 124.692C265.397 124.662 265.611 124.469 265.745 124.17C266.908 124.03 267.738 123.264 268.669 122.666C270.342 121.591 271.251 121.783 272.439 123.398C273.369 124.665 272.136 125.208 271.523 125.874C270.564 126.905 269.527 127.854 268.29 128.59C262.024 132.311 255.672 135.772 248.194 136.38C246.372 136.526 244.794 137.472 243.152 138.183L243.14 138.186ZM262.616 124.714C262.412 124.918 262.21 125.12 262.006 125.324C261.52 125.59 261.383 126.026 261.401 126.542C261.075 126.624 260.867 126.826 260.788 127.155C260.712 127.177 260.626 127.183 260.562 127.226C260.522 127.25 260.516 127.326 260.495 127.378C260.583 127.296 260.675 127.217 260.763 127.134C260.968 126.93 261.173 126.725 261.377 126.518C261.865 126.255 261.987 125.809 261.981 125.3C262.308 125.22 262.503 125.007 262.592 124.689C262.796 124.485 263.001 124.28 263.205 124.076C263.727 123.828 263.807 123.361 263.813 122.858C263.889 122.833 263.971 122.821 264.036 122.775C264.072 122.748 264.072 122.672 264.09 122.617C264.008 122.705 263.926 122.794 263.84 122.882C263.355 123.148 263.23 123.59 263.233 124.1C263.028 124.305 262.824 124.509 262.619 124.714H262.616ZM268.092 126.521C268.376 126.469 268.687 126.472 268.931 126.347C269.173 126.221 269.554 125.855 269.517 125.788C269.221 125.233 268.88 125.635 268.614 125.852C268.4 126.026 268.275 126.307 268.11 126.539C268.031 126.566 267.942 126.582 267.878 126.63C267.842 126.658 267.842 126.737 267.827 126.795C267.915 126.704 268.004 126.612 268.092 126.521Z" fill="#F4795E"/>
<path d="M112.431 66.7414C113.582 67.1016 113.75 66.0791 114.003 65.4625C114.36 64.5926 114.696 63.7868 115.584 63.3534C117.696 65.725 117.504 68.6644 117.205 71.4328C116.533 77.632 115.151 81.4504 107.78 83.5443L107.743 83.758L107.517 83.819L107.593 83.8007C106.629 83.9442 105.957 83.6389 105.75 82.6103C106.714 82.3173 107.676 82.0212 108.64 81.7313C112.971 80.4218 114.98 77.2566 115.401 72.9864C115.603 70.9231 115.435 68.8201 115.435 66.8117C114.342 67.764 113.307 68.6827 112.254 69.577C110.487 71.0727 108.497 71.9426 106.122 71.6465C104.697 71.4694 103.982 70.6453 104.025 69.226C104.047 68.4904 104.874 67.7731 103.976 66.888C102.865 67.6419 102.298 68.7956 101.687 69.9219C100.515 72.086 100.182 74.5187 99.4651 76.8262C99.056 76.6797 98.647 76.5363 98.238 76.3897C98.8943 70.5477 101.867 65.9356 106.009 61.989C106.934 61.1069 108.085 60.1454 109.519 60.939C110.401 61.4274 109.977 63.0207 108.591 64.672C107.749 65.6762 106.644 66.4637 106.122 67.7365C105.808 68.4965 105.39 69.3115 106.046 70.0044C106.675 70.6698 107.578 70.4286 108.35 70.215C110.234 69.693 111.314 68.1882 112.428 66.7414H112.431ZM105.71 64.8795C105.631 64.9162 105.539 64.9406 105.478 64.9986C105.441 65.0352 105.457 65.1237 105.448 65.1909C105.542 65.0963 105.637 64.9986 105.731 64.904C105.811 64.8734 105.905 64.8551 105.966 64.8032C106.006 64.7697 105.997 64.6811 106.009 64.6171C105.908 64.7056 105.808 64.7941 105.71 64.8795Z" fill="#F4795E"/>
<path d="M185.073 73.5938C185.46 73.5267 185.848 73.3954 186.236 73.4015C187.054 73.4107 188.214 72.7941 188.571 73.8594C188.943 74.9704 187.704 75.1444 186.965 75.529C187.014 75.5961 187.054 75.6786 187.118 75.7304C187.191 75.7915 187.286 75.8312 187.368 75.88C186.767 78.3249 186.382 80.7973 186.272 83.3215C186.156 86.0442 185.781 88.7454 184.905 91.3277C184.142 93.5772 183.241 94.1663 180.861 94.1907C179.453 94.2029 178.049 94.2426 176.642 93.916C174.426 93.4002 173.956 93.6749 173.63 95.9488C173.257 98.5494 173.395 101.19 173.486 103.818C169.857 103.857 166.225 103.931 162.596 103.924C161.512 103.924 160.358 104.144 159.375 103.415C162.73 103.387 166.087 103.396 169.442 103.32C171.572 103.271 171.649 103.216 171.649 101.028C171.649 98.7844 171.89 96.5868 172.259 94.3769C172.509 92.8721 173.254 92.2464 174.716 92.3197C176.233 92.396 177.735 92.3899 179.252 92.7439C181.84 93.3452 183.397 92.2952 183.791 89.6336C184.578 84.3227 185.366 78.9995 185.07 73.5969L185.073 73.5938Z" fill="#F4795E"/>
<path d="M55.6434 27.7484C56.2508 27.7301 56.8612 27.7087 57.4686 27.6904C57.5205 28.3039 57.5694 28.9205 57.6213 29.534C57.6457 29.708 57.6426 29.8789 57.6121 30.0498C58.4728 34.787 58.25 39.518 57.4717 44.2308C57.1939 45.9187 55.7136 47.0267 53.6868 47.1396C51.9684 47.2342 50.2378 47.1854 48.5132 47.1213C47.1336 47.0694 46.4041 47.5517 46.4804 49.029C46.5414 50.2438 46.514 51.4617 46.5262 52.6795C45.5159 52.6551 44.5086 52.6307 43.4983 52.6063C44.2217 52.0294 44.8779 51.4495 44.7406 50.3598C44.6521 49.6608 44.6887 48.9405 44.7345 48.2323C44.8901 45.8851 45.351 45.4242 47.683 45.3815C49.4075 45.351 51.1321 45.4303 52.8566 45.4029C55.4419 45.3601 56.205 44.7069 56.2477 42.2285C56.321 38.2758 56.2569 34.32 56.2782 30.3642C56.2844 29.4272 56.1104 28.5573 55.6403 27.7484H55.6434Z" fill="#F4795E"/>
<path d="M57.5846 22.7243C57.6182 22.9075 57.606 23.0906 57.545 23.2676C57.4412 23.6553 57.374 24.0582 57.2245 24.4275C56.6262 25.8957 57.1482 26.5244 58.6835 26.4451C59.0864 26.4237 59.4893 26.439 59.8922 26.4359C58.6041 27.8186 57.0444 26.9212 55.5976 26.9395C56.4034 22.4283 56.1134 18.0055 54.5903 13.6621C54.2607 12.725 54.1294 11.7208 53.9097 10.7471C54.63 10.5029 55.3504 10.2557 56.0676 10.0115C55.6495 10.9883 55.8143 11.9039 56.0707 12.9295C56.8734 16.1405 57.7159 19.3637 57.5877 22.7243H57.5846Z" fill="#F4795E"/>
<path d="M70.1417 70.0196C69.7388 69.574 69.3389 69.1314 68.936 68.6858C71.0146 66.6316 72.376 63.9578 74.6652 62.0836C76.4508 60.6185 78.1143 58.9459 80.5927 58.6895L80.7301 58.8421C80.2417 59.3488 79.8083 59.9318 79.2558 60.353C75.6877 63.0787 72.4981 66.1524 70.1417 70.0196Z" fill="#F4795E"/>
<path d="M178.938 364.78C178.944 364.49 179.136 364.429 179.374 364.419C179.939 364.783 180.046 365.35 180.183 365.967C181.05 369.914 181.917 373.86 182.875 377.785C183.382 379.864 184.343 381.763 185.702 383.441L185.683 383.466C183.699 383.2 183.211 381.582 182.665 380.062C180.885 375.102 180.15 369.883 178.941 364.783L178.938 364.78Z" fill="#F4795E"/>
<path d="M183.776 64.8979C184.075 62.6453 183.37 60.4659 183.284 58.2439C184.566 60.3499 185.146 62.6331 185.106 65.0963C185.091 66.0974 185.198 67.1016 185.25 68.1028C185.286 68.4904 185.28 68.8933 185.613 69.1802C185.711 70.3432 185.805 71.5091 185.903 72.6721C185.421 72.7117 184.942 72.7514 184.459 72.788C184.49 70.1356 183.434 67.5747 183.779 64.8948L183.776 64.8979Z" fill="#F4795E"/>
<path d="M15.3684 327.737C15.1303 327.7 14.8953 327.664 14.6572 327.624C13.7629 326.009 14.2268 324.273 14.1902 322.585C14.7365 322.731 15.2829 322.875 15.8323 323.018C14.877 324.511 15.579 326.168 15.3684 327.737Z" fill="#6B7EEC"/>
<path d="M84.4448 56.8795C84.402 57.5602 84.5363 58.2866 83.9045 58.8024C83.1384 58.6651 82.5768 59.1901 81.9205 59.4098L81.9053 59.3976C81.6641 58.8971 81.2185 58.8238 80.7301 58.8452L80.5928 58.6925C81.4138 57.1023 82.9919 57.1298 84.4448 56.8825V56.8795Z" fill="#F4795E"/>
<path d="M23.991 42.1491C24.5801 42.2956 25.2394 42.2804 25.6362 42.8664C24.9067 43.6509 25.2974 44.6673 25.0746 45.5555C24.6655 45.4639 24.2535 45.3723 23.8445 45.2808C23.8933 44.2369 23.9422 43.193 23.991 42.1491Z" fill="#F4795E"/>
<path d="M11.959 230.433C12.2123 231.761 12.2154 233.073 11.6904 234.346C11.7362 233.037 11.4615 231.709 11.959 230.433Z" fill="#6B7EEC"/>
<path d="M166.039 46.5872C164.702 47.0633 163.313 47.0908 161.918 47.0389C163.212 46.1537 164.656 46.6635 166.039 46.5872Z" fill="#6B7EEC"/>
<path d="M12.9905 303.566C13.5064 304.478 13.4698 305.437 13.2347 306.414C12.725 305.501 12.9539 304.524 12.9905 303.566Z" fill="#6B7EEC"/>
<path d="M3.80317 129.68C4.27017 130.589 4.30069 131.517 3.94357 132.466C3.62613 131.551 3.74823 130.614 3.80317 129.68Z" fill="#6B7EEC"/>
<path d="M2.59756 99.7551C3.08592 100.668 3.09203 101.599 2.69523 102.542C2.41747 101.62 2.52736 100.686 2.59756 99.7551Z" fill="#6B7EEC"/>
<path d="M8.02744 184.13C8.50665 184.743 8.53717 185.43 8.35709 186.15C7.85956 185.537 8.05491 184.816 8.02744 184.13Z" fill="#6B7EEC"/>
<path d="M11.6689 208.615C12.1481 209.219 12.1542 209.885 11.9131 210.581C11.5621 209.958 11.6872 209.277 11.6689 208.615Z" fill="#6B7EEC"/>
<path d="M9.23936 192.117C9.73078 192.713 9.73993 193.387 9.56595 194.089C9.0898 193.491 9.27293 192.786 9.23936 192.117Z" fill="#6B7EEC"/>
<path d="M11.0615 204.317C11.4705 204.73 11.5041 205.184 11.2202 205.676C11.1653 205.221 11.1134 204.769 11.0615 204.317Z" fill="#6B7EEC"/>
<path d="M63.1672 206.399C63.1733 206.045 63.1825 205.688 63.1886 205.334C63.5976 205.697 63.5946 206.051 63.1672 206.399Z" fill="#6B7EEC"/>
<path d="M61.9432 157.529C61.8425 157.248 61.992 157.144 62.2362 157.111C62.2362 157.321 62.1355 157.459 61.9432 157.529Z" fill="#6B7EEC"/>
<path d="M107.517 83.819L107.743 83.758C107.743 83.758 107.783 83.5413 107.78 83.5443C107.685 83.6328 107.6 83.7214 107.52 83.819H107.517Z" fill="#6B7EEC"/>
<path d="M63.1734 175.898C63.0574 175.739 63.0513 175.577 63.1551 175.412C63.213 175.525 63.2863 175.635 63.3229 175.754C63.3321 175.785 63.2283 175.849 63.1764 175.895L63.1734 175.898Z" fill="#6B7EEC"/>
<path d="M3.90696 98.5585C2.97296 91.0987 1.94128 83.6481 1.42544 76.1425C1.08359 71.1642 1.0378 66.1859 1.82835 61.2412C2.48154 57.1542 3.83981 53.3663 6.82495 50.3445C9.14164 48.0004 11.9253 46.7031 15.2584 46.6879C16.4794 46.6818 17.7094 46.7917 18.9151 46.6604C22.1353 46.3094 24.6839 46.9931 26.79 49.8409C28.8961 52.6887 32.3147 53.5189 35.7485 53.7509C38.1781 53.9157 40.6322 54.0195 43.0587 53.876C45.0183 53.76 46.5628 54.3095 48.092 55.4815C51.6418 58.2072 55.4999 60.4263 59.416 62.6147C66.0517 66.3263 70.856 71.9822 74.241 78.7614C77.8976 86.0808 80.0037 93.9374 81.9236 101.846C82.2044 103 82.4913 104.15 82.937 105.966C84.1579 103.812 85.1041 102.185 86.0076 100.533C89.71 93.7573 93.3788 86.9629 97.0996 80.196C98.4304 77.7755 98.6196 77.7969 101.025 79.2497C102.856 80.3577 103.94 82.0334 104.831 83.8892C105.21 84.6767 105.124 85.4459 104.892 86.2578C101.458 98.3144 97.2705 110.06 90.7539 120.853C89.4902 122.943 88.1289 124.967 86.383 126.698C84.0327 129.03 82.2013 129.378 79.2467 127.839C75.9167 126.102 73.4443 123.398 71.4512 120.288C68.5881 115.816 66.3813 111.024 64.9101 105.908C64.4126 104.172 63.8967 102.441 63.0818 100.71C62.6422 105.973 62.2241 111.241 61.754 116.5C60.7376 127.864 61.5221 139.252 61.3359 150.625C61.3175 151.742 61.2412 152.868 61.3511 153.976C61.5129 155.615 60.704 156.338 59.2481 156.787C55.6555 157.895 52.0599 158.979 48.33 159.531C47.4784 159.482 46.5994 159.302 45.879 159.983L45.7173 160.01C40.7634 160.013 35.8065 160.016 30.8526 160.02C22.0773 158.942 14.8738 154.953 9.10502 148.299C6.76696 145.6 5.5552 142.628 5.45752 138.901C5.1584 127.317 4.50216 115.746 3.99853 104.169C3.93138 102.646 3.96801 101.119 3.9558 99.5994C4.37091 99.2331 4.36786 98.8852 3.90085 98.5647L3.90696 98.5585Z" fill="white"/>
<path d="M112.431 66.7414C111.317 68.1882 110.237 69.6961 108.353 70.215C107.581 70.4286 106.675 70.6667 106.049 70.0044C105.393 69.3115 105.814 68.4965 106.125 67.7365C106.647 66.4667 107.752 65.6793 108.595 64.672C109.98 63.0207 110.405 61.4274 109.522 60.939C108.085 60.1424 106.937 61.1069 106.012 61.989C101.87 65.9356 98.8974 70.5477 98.2412 76.3897C96.9165 76.7255 97.1362 78.914 95.7993 78.795C94.5632 78.6851 93.385 77.8274 92.2037 77.2505C89.7375 76.0479 87.2773 74.83 84.8294 73.5877C81.9175 72.1104 81.6092 71.4572 82.5799 68.2645C85.272 59.4159 88.0129 50.5857 90.7295 41.7432C91.5933 38.932 92.3777 36.0934 93.3148 33.3066C94.3159 30.3306 95.6284 29.7751 98.3541 31.2005C104.901 34.6252 111.418 38.1018 117.925 41.5997C120.663 43.0709 120.944 43.8309 119.876 46.7367C117.419 53.4121 114.916 60.0691 112.431 66.7353V66.7414Z" fill="white"/>
<path d="M25.0747 45.5555C25.2975 44.6673 24.9068 43.6478 25.6363 42.8664C26.2285 42.9946 26.8206 43.1381 27.4189 43.251C30.1568 43.7729 32.6719 43.8798 35.1961 41.9873C37.0244 40.6138 39.161 39.634 40.7116 37.8576C41.1115 37.3998 41.7036 36.7313 41.0901 36.304C38.8375 34.732 39.7715 32.3055 39.332 30.2696C39.1458 29.4088 39.3808 28.4596 39.4235 27.5531C39.6158 27.4523 39.6799 27.2967 39.6189 27.0891C40.1134 25.2425 41.5235 25.1814 43.0069 25.4348C44.4171 25.6759 44.9634 26.7045 45.1527 28.0353C45.3389 29.3386 45.5983 30.6328 45.87 31.9209C46.0257 32.6565 46.4041 33.2822 47.271 33.2669C48.1226 33.2547 48.5255 32.5832 48.7147 31.9056C48.9284 31.1364 49.0352 30.3093 49.0169 29.5126C48.9864 28.2368 49.4839 27.6202 50.7903 27.6629C52.411 27.7148 54.0318 27.7209 55.6495 27.7484C56.1196 28.5573 56.2905 29.4272 56.2875 30.3673C56.2661 34.323 56.3271 38.2758 56.2569 42.2315C56.2112 44.7069 55.4481 45.3632 52.8658 45.4059C51.1413 45.4334 49.4167 45.351 47.6922 45.3846C45.3603 45.4273 44.8994 45.8912 44.7437 48.2354C44.6979 48.9435 44.6613 49.6639 44.7498 50.3628C44.8871 51.4525 44.2278 52.0324 43.5075 52.6093C40.6841 52.8718 37.8791 52.5574 35.074 52.3316C30.4712 51.9653 27.2235 49.5723 25.0839 45.5585L25.0747 45.5555Z" fill="white"/>
<path d="M58.1219 335.71C55.4481 336.283 52.7712 336.836 50.1035 337.434C48.3973 337.816 46.6758 337.895 44.9635 337.666C42.369 337.321 41.0596 335.795 40.9955 333.182C40.9436 331.055 40.9344 328.927 41.7402 326.879C42.7872 326.498 43.4159 327.359 44.1882 327.719C48.2325 329.593 52.1394 329.825 55.8296 326.879C55.9883 326.754 56.1226 326.592 56.2936 326.489C58.3813 325.185 60.2707 324.068 63.1338 324.718C66.766 325.542 70.5966 324.77 74.3418 324.578C75.5566 324.517 76.7745 324.358 77.9679 324.712C79.6589 325.213 80.3517 326.544 79.8359 328.234C79.3933 329.684 78.4319 330.676 77.1102 331.342C72.8187 333.509 68.3349 335.004 63.4939 335.249C61.7022 335.374 59.8495 334.757 58.128 335.71H58.1219Z" fill="white"/>
<path d="M15.3682 327.737C15.5788 326.168 14.8768 324.514 15.8321 323.018C16.177 323.073 16.525 323.128 16.8669 323.183C19.1408 323.922 21.4117 323.983 23.6765 323.131C29.543 321.071 31.4904 315.949 33.3615 310.766C35.1135 310.901 36.7312 310.437 38.2604 309.622C38.3642 309.884 38.4649 310.15 38.5687 310.409C38.645 313.144 38.2268 315.897 38.8922 318.611C39.3317 320.259 38.9197 321.455 37.4088 322.484C33.978 324.822 30.6174 327.264 27.0432 329.385C24.2931 331.018 21.3751 331.464 18.2831 330.478C16.8669 330.026 15.6765 329.355 15.3651 327.737H15.3682Z" fill="white"/>
<path d="M99.4683 76.8293C100.182 74.5187 100.515 72.0891 101.69 69.925C102.301 68.7987 102.869 67.6449 103.98 66.891C104.877 67.7762 104.053 68.4904 104.028 69.2291C103.986 70.6484 104.7 71.4725 106.125 71.6495C108.5 71.9456 110.49 71.0757 112.257 69.5801C113.313 68.6858 114.345 67.767 115.438 66.8147C115.438 68.8262 115.606 70.9261 115.404 72.9895C114.986 77.2597 112.975 80.4249 108.643 81.7343C107.679 82.0273 106.714 82.3204 105.753 82.6134C104.312 79.9762 102.136 78.1357 99.4683 76.8293Z" fill="white"/>
<path d="M80.7301 58.8421C81.2185 58.8207 81.6611 58.894 81.9053 59.3946C81.7496 59.5899 81.5939 59.7853 81.4352 59.9806C81.542 60.0447 81.6458 60.1058 81.7527 60.1699C81.8076 59.9165 81.8656 59.6632 81.9205 59.4098C82.5768 59.1901 83.1384 58.6651 83.9045 58.8024C83.1598 62.7643 81.6947 66.5217 80.5531 70.3706C80.138 71.7625 79.9152 73.0994 80.2845 74.5126C78.3554 75.2085 77.1498 76.93 75.4436 77.9373C74.7507 76.9636 74.0059 76.0174 73.9205 74.7507C74.6683 74.6286 75.2268 74.3233 75.2024 73.4443C75.5382 73.3771 75.7274 73.1574 75.8159 72.8399C76.3348 72.5896 76.4356 72.1318 76.4264 71.616C76.756 71.5335 76.9361 71.3046 77.0216 70.9902C78.9873 69.0398 78.0044 66.5492 78.2517 64.2843C78.5966 64.2233 78.7797 64.0005 78.8682 63.68C79.1979 63.6037 79.3932 63.3961 79.4756 63.0726C79.9823 62.8192 80.1166 62.3736 80.0892 61.8517C80.1716 61.8211 80.2662 61.8089 80.3303 61.7571C80.37 61.7235 80.3608 61.6319 80.3761 61.5648C80.2723 61.6533 80.1716 61.7418 80.0678 61.8303C79.5611 62.0836 79.436 62.5293 79.4512 63.0482C79.1185 63.1214 78.9293 63.3351 78.8438 63.6586C78.5172 63.7441 78.328 63.9608 78.2425 64.2782C77.2475 66.4118 77.3879 68.7499 77.0308 70.9994C76.6797 71.0482 76.4997 71.2741 76.405 71.5946C75.8831 71.8418 75.7824 72.2997 75.7885 72.8155C75.4619 72.8979 75.2787 73.1177 75.1872 73.4321C74.5584 73.6824 74.128 74.1188 73.9144 74.7629C72.3516 73.4229 71.3413 71.6465 70.1387 70.0227C72.492 66.1585 75.6816 63.0817 79.2498 60.3591C79.8022 59.9348 80.2357 59.3549 80.724 58.8482L80.7301 58.8421Z" fill="white"/>
<path d="M75.4436 77.9342C77.1529 76.927 78.3555 75.2055 80.2845 74.5095C80.7058 74.6286 81.0415 74.8544 81.2338 75.2635C79.6771 76.8445 77.5039 77.7175 76.228 79.6191C75.7153 79.1734 75.6847 78.505 75.4436 77.9342Z" fill="#F4795E"/>
<path d="M30.8525 160.02C35.8064 160.016 40.7633 160.013 45.7172 160.01C40.7633 161.002 35.8064 161.027 30.8525 160.02Z" fill="white"/>
<path d="M38.2604 309.619C36.7281 310.437 35.1135 310.897 33.3615 310.763C33.3462 310.369 33.3279 309.979 33.3096 309.588C35.1135 309.701 36.8319 309.426 38.3825 308.431C38.3428 308.828 38.3031 309.222 38.2634 309.615L38.2604 309.619Z" fill="#6B7EEC"/>
<path d="M38.8955 318.611C38.2301 315.897 38.6483 313.144 38.5719 310.409C39.1244 313.126 39.0969 315.867 38.8955 318.611Z" fill="white"/>
<path d="M23.6766 323.131C21.4118 323.983 19.1409 323.922 16.8669 323.183C19.1378 323.165 21.4088 323.149 23.6766 323.131Z" fill="#6B7EEC"/>
<path d="M37.5126 215.501C37.1097 215.034 36.7282 215.3 36.3497 215.538C36.1696 214.753 36.4199 214.039 36.6427 212.916C37.3905 213.896 37.6134 214.637 37.5126 215.501Z" fill="#6B7EEC"/>
<path d="M58.1218 335.71C59.8433 334.76 61.6991 335.374 63.4878 335.249C61.7388 335.89 59.9227 335.707 58.1218 335.71Z" fill="#6B7EEC"/>
<path d="M38.0987 219.698C38.0926 218.795 37.1952 217.983 37.824 217.018C38.3643 217.867 38.3978 218.764 38.0987 219.698Z" fill="#6B7EEC"/>
<path d="M34.7381 223.596C34.8816 224.2 34.9701 224.795 34.4207 225.265C34.03 224.612 33.9964 224.032 34.7381 223.596Z" fill="#6B7EEC"/>
<path d="M45.8789 159.983C46.5992 159.302 47.4753 159.482 48.3299 159.531C47.5943 160.123 46.7458 160.099 45.8789 159.983Z" fill="white"/>
<path d="M33.8499 234.636C34.2833 234.993 34.2894 235.338 33.8254 235.671C33.8346 235.326 33.8407 234.981 33.8499 234.636Z" fill="#6B7EEC"/>
<path d="M3.90698 98.5586C4.37704 98.879 4.38009 99.227 3.96192 99.5933C3.94361 99.2484 3.9253 98.9035 3.90698 98.5586Z" fill="white"/>
<path d="M35.8462 218.559C35.9958 218.819 35.9317 219.02 35.6814 219.17C35.7363 218.965 35.7913 218.764 35.8462 218.559Z" fill="#6B7EEC"/>
<path d="M35.3151 221.111C35.251 221.3 35.1838 221.49 35.1197 221.676C35.0251 221.432 35.0861 221.242 35.3151 221.111Z" fill="#6B7EEC"/>
<path d="M34.9793 222.1V222.067L34.729 222.036L34.9793 222.1Z" fill="#6B7EEC"/>
<path d="M178.938 364.78C180.146 369.88 180.882 375.099 182.662 380.059C183.208 381.579 183.696 383.197 185.68 383.463C186.547 384.479 187.728 384.668 188.968 384.708C189.725 384.729 190.387 384.885 190.497 385.819C190.613 386.799 190.466 387.684 189.474 388.127C186.575 389.421 183.696 389.302 181.654 387.034C180.354 385.59 179.292 383.985 178.324 382.336C175.354 377.27 172.586 372.096 171.359 366.269C173.856 365.628 176.484 365.649 178.935 364.78H178.938Z" fill="white"/>
<path d="M166.524 364.679C165.398 364.151 165.385 363.128 165.337 362.094C165.16 358.342 164.964 354.594 164.766 350.846C164.308 342.132 163.746 333.42 163.417 324.7C163.078 315.732 164.43 306.896 165.828 298.069C166.484 293.914 167.879 289.861 167.586 285.573C169.952 277.982 168.493 270.32 167.983 262.68C167.971 262.519 167.772 262.366 167.638 262.177C167.36 262.479 167.089 262.775 166.82 263.071C166.609 261.676 167.418 260.678 168.194 259.604C169.124 266.734 170.245 273.858 169.317 281C168.151 289.956 166.49 298.844 165.166 307.778C164.015 315.54 163.871 323.342 164.494 331.171C164.897 336.231 165.062 341.307 165.318 346.38C165.569 351.349 165.904 356.319 165.965 361.291C165.981 362.509 167.049 363.452 166.53 364.682L166.524 364.679Z" fill="#6B7EEC"/>
<path d="M164.342 270.568C161.744 279.254 160.706 288.13 160.487 297.193C160.255 306.817 159.498 316.425 158.939 326.04C158.493 333.729 157.822 341.411 157.617 349.106C157.535 352.277 156.766 354.377 153.527 355.116C153.25 355.076 152.792 355.156 152.807 354.805C152.831 354.307 153.378 354.344 153.738 354.261C155.81 353.797 156.671 352.604 156.781 350.4C157.199 341.897 157.852 333.405 158.319 324.901C158.988 312.753 159.504 300.596 160.221 288.454C160.526 283.283 161.534 278.201 162.999 273.223C163.279 272.268 163.435 271.221 164.342 270.571V270.568Z" fill="#6B7EEC"/>
<path d="M147.627 102.615C147.597 103.106 147.563 103.601 147.533 104.089C147.035 105.402 147.139 106.73 147.453 108.063C147.984 113.817 148.415 119.583 149.065 125.321C150.014 133.681 151.134 142.017 153.277 150.182C154.586 155.172 158.032 158.344 162.199 160.865C164.317 162.147 165.233 161.537 164.983 159.122C164.5 154.474 163.264 149.962 162.199 145.427C159.882 135.562 157.117 125.797 155.487 115.777C154.919 112.273 154.419 108.756 154.388 105.197C154.608 104.581 154.437 103.848 154.944 103.317C157.532 104.66 160.3 105.173 163.197 105.109C165.944 105.048 168.688 104.999 171.435 104.953C172.485 104.935 173.569 104.987 173.877 106.256C174.377 108.311 175.965 109.443 177.466 110.649C179.359 112.166 181.282 113.646 183.251 115.187C173.41 119.98 171.212 135.388 175.568 142.844C178.352 147.615 181.642 151.977 185.268 156.116C186.736 157.791 188.864 159.134 189.52 161.207C190.143 163.166 189.163 165.392 188.9 167.501C188.638 169.613 188.879 171.759 188.247 173.853C186.483 179.685 182.75 183.193 176.615 183.968C174.115 183.974 171.615 183.977 169.115 183.983C162.11 183.037 155.893 180.268 150.429 175.818C147.884 173.746 146.757 171.041 147.203 167.742C147.392 166.338 147.603 164.934 147.74 163.521C148.344 157.446 147.444 151.595 145.042 145.988C143.647 142.731 142.341 139.423 140.735 136.27C137.692 130.287 136.27 123.926 135.833 117.294C136.245 116.924 136.23 116.573 135.784 116.24C135.43 112.404 135.751 108.637 136.572 104.858C137.585 100.198 142.038 98.2716 146.672 99.0195C147.53 99.1568 147.908 99.5963 147.832 100.445C147.777 101.046 147.71 101.644 147.649 102.243L147.447 102.417L147.621 102.618L147.627 102.615Z" fill="white"/>
<path d="M205.7 152.166C215.648 146.052 225.665 140.873 235.149 134.786C236.51 133.913 237.792 133.333 239.401 134.023C241.641 134.982 242.508 137.198 241.14 139.227C236.016 146.843 230.479 154.089 222.714 159.302C217.644 162.706 212.412 165.798 206.872 168.386C203.878 169.784 201.403 169.613 198.781 167.4C191.126 160.938 184.307 153.762 178.602 145.509C173.575 138.238 173.611 130.742 177.201 122.986C178.156 120.923 179.524 119.155 181.389 117.843C184.322 115.78 187.438 116.082 189.868 118.716C191.733 120.74 193.222 123.041 194.529 125.471C198.338 132.558 201.256 140.027 204.003 147.569C204.519 148.989 205.05 150.405 205.7 152.163V152.166Z" fill="white"/>
<path d="M130.989 156.546C131.062 152.081 131.474 147.639 131.926 143.201C132.668 135.943 133.324 128.672 134.481 121.136C135.165 121.872 135.101 122.543 135.18 123.133C135.961 128.953 138.324 134.222 140.827 139.447C141.44 140.729 141.965 142.051 142.603 143.32C144.715 147.517 145.597 151.772 144.389 156.519C143.51 159.965 143.54 163.579 145.478 166.86C145.97 167.69 145.942 168.609 145.921 169.524C145.89 170.874 146.107 172.207 146.809 173.331C147.624 174.631 147.502 175.659 146.705 176.935C145.097 179.508 143.671 182.198 142.176 184.826C141.495 185 141.281 184.487 141.04 184.081C138.012 179.032 135.076 173.938 132.598 168.587C131.603 166.439 131.004 164.216 130.949 161.851C130.998 161.808 131.099 161.744 131.09 161.72C131.053 161.607 130.983 161.503 130.925 161.396C130.925 160.523 130.931 159.653 130.931 158.78C131.468 158.051 131.453 157.306 130.983 156.552L130.989 156.546Z" fill="white"/>
<path d="M185.073 73.5938C185.369 78.9964 184.581 84.3196 183.794 89.6306C183.4 92.2922 181.843 93.3422 179.255 92.7409C177.738 92.3899 176.236 92.3929 174.719 92.3166C173.254 92.2434 172.513 92.8691 172.262 94.3739C171.893 96.5837 171.652 98.7814 171.652 101.025C171.652 103.213 171.579 103.268 169.445 103.317C166.091 103.39 162.736 103.384 159.379 103.412C157.532 103.235 155.911 102.548 154.538 101.29C154.516 101.135 154.44 101.016 154.309 100.93C153.994 100.42 154.064 99.9016 154.281 99.3827C154.553 99.4956 154.666 99.4559 154.571 99.2972C154.547 99.2575 154.394 99.2942 154.303 99.2942C154.565 97.3254 154.333 95.259 155.328 93.3727C159.855 96.6692 162.092 95.0789 164.98 92.2189C168.774 88.4555 171.646 84.0449 173.602 79.0575C174.011 78.0197 174.417 76.9727 174.915 75.9777C175.574 74.6591 176.728 73.9998 178.168 74.247C179.563 74.4851 180.085 75.6297 180.262 76.9208C180.452 78.3188 180.61 79.7228 180.778 81.0872C181.993 81.2032 182.042 80.3364 182.234 79.732C182.726 78.1845 183.116 76.6034 183.211 74.9704C183.281 73.7556 183.995 73.429 185.076 73.5969L185.073 73.5938Z" fill="white"/>
<path d="M265.052 128.364C263.367 130.394 260.834 130.959 258.606 132.027C254.873 133.819 250.865 134.795 246.812 135.497C245.466 135.729 244.364 136.355 243.158 136.825C242.633 134.307 240.747 133.141 238.598 132.238C240.689 130.54 243.045 129.719 245.768 129.5C249.446 129.201 252.806 127.943 255.321 125.013C255.639 124.643 256.091 124.384 256.481 124.076L256.515 124.109C256.667 126.371 254.357 127.131 253.49 129.017C255.743 130.55 257.278 127.775 259.256 128.025C259.289 129.146 258.166 129.152 257.775 129.796C257.568 130.135 257.241 130.424 257.547 130.84C257.843 131.243 258.224 131.133 258.618 130.959C260.367 130.183 262.116 129.408 263.874 128.657C264.237 128.502 264.649 128.456 265.037 128.361L265.043 128.37L265.052 128.364Z" fill="white"/>
<path d="M183.776 64.8979C183.431 67.5778 184.487 70.1387 184.456 72.7911C183.58 73.0292 183.226 72.5927 183.016 71.7961C182.378 69.3908 182.826 67.1199 183.776 64.8979Z" fill="white"/>
<path d="M169.115 183.983C171.615 183.977 174.115 183.974 176.615 183.968C174.118 184.81 171.618 184.722 169.115 183.983Z" fill="#6B7EEC"/>
<path d="M147.453 108.063C147.139 106.733 147.035 105.405 147.533 104.089C147.771 105.42 147.841 106.745 147.453 108.063Z" fill="white"/>
<path d="M154.944 103.314C154.437 103.845 154.608 104.578 154.388 105.194C153.979 104.669 153.994 104.05 154.11 103.467C154.226 102.887 154.58 102.896 154.947 103.314H154.944Z" fill="#6B7EEC"/>
<path d="M130.989 156.546C131.456 157.3 131.471 158.045 130.937 158.774C130.742 158.026 130.733 157.282 130.989 156.546Z" fill="#6B7EEC"/>
<path d="M135.787 116.237C136.233 116.567 136.248 116.918 135.836 117.29C135.821 116.939 135.803 116.588 135.787 116.237Z" fill="white"/>
<path d="M130.931 161.39C130.989 161.497 131.059 161.601 131.096 161.714C131.105 161.741 131.004 161.802 130.956 161.845C130.837 161.698 130.827 161.546 130.931 161.39Z" fill="white"/>
<path d="M147.627 102.615L147.453 102.414C147.453 102.414 147.655 102.237 147.655 102.24C147.749 102.374 147.74 102.496 147.627 102.615Z" fill="white"/>
<path d="M154.309 100.93C154.44 101.016 154.516 101.138 154.538 101.29L154.293 101.187L154.312 100.93H154.309Z" fill="#6B7EEC"/>
<path d="M154.299 99.2942C154.391 99.2942 154.544 99.2575 154.568 99.2972C154.663 99.4559 154.55 99.4956 154.278 99.3827L154.299 99.2942Z" fill="white"/>
<path d="M53.9066 10.7471C54.1294 11.7208 54.2606 12.7281 54.5872 13.6621C56.1103 18.0055 56.4003 22.4283 55.5945 26.9395C53.8821 27.0006 52.1668 27.022 50.4544 27.1318C49.203 27.2112 48.9191 26.5672 48.913 25.4805C48.9039 24.0093 49.2671 22.648 50.1309 21.4942C51.4556 19.727 51.7486 17.8559 51.0862 15.7773C50.9031 15.2065 50.8115 14.5961 50.7505 13.9948C50.4636 11.2324 50.897 10.796 53.9066 10.7441V10.7471Z" fill="white"/>
<path d="M39.6158 27.0891C39.6768 27.2967 39.6127 27.4493 39.4204 27.5531C39.3289 27.3333 39.393 27.1807 39.6158 27.0891Z" fill="#F4795E"/>
<path d="M265.046 128.355C265.22 128.126 265.363 127.858 265.577 127.674C265.861 127.433 266.291 127.11 266.538 127.58C266.77 128.019 266.325 128.233 265.928 128.303C265.644 128.355 265.348 128.346 265.055 128.364L265.049 128.355H265.046Z" fill="white"/>
<path d="M268.11 126.539C268.275 126.307 268.4 126.026 268.614 125.849C268.876 125.632 269.218 125.229 269.517 125.785C269.554 125.855 269.173 126.221 268.931 126.344C268.687 126.469 268.376 126.466 268.092 126.518L268.11 126.536V126.539Z" fill="white"/>
<path d="M256.487 124.073C256.57 123.618 256.619 123.13 257.253 123.133C257.318 123.133 257.437 123.258 257.437 123.328C257.449 123.951 257.003 124.054 256.521 124.106L256.487 124.073Z" fill="white"/>
<path d="M261.981 125.297C261.987 125.806 261.862 126.249 261.377 126.515L261.401 126.539C261.383 126.026 261.52 125.587 262.006 125.321L261.981 125.294V125.297Z" fill="white"/>
<path d="M263.233 124.1C263.23 123.59 263.355 123.148 263.84 122.882L263.813 122.855C263.807 123.358 263.727 123.825 263.208 124.073L263.233 124.097V124.1Z" fill="white"/>
<path d="M265.736 124.173C265.601 124.473 265.388 124.665 265.049 124.695H265.052C265.235 124.479 265.418 124.256 265.598 124.033L265.736 124.17V124.173Z" fill="white"/>
<path d="M260.761 127.131C260.672 127.213 260.58 127.293 260.492 127.375C260.513 127.323 260.519 127.247 260.559 127.223C260.623 127.183 260.709 127.174 260.785 127.152L260.761 127.128V127.131Z" fill="white"/>
<path d="M268.092 126.518C268.004 126.609 267.915 126.701 267.827 126.792C267.842 126.734 267.842 126.655 267.879 126.627C267.943 126.579 268.031 126.566 268.111 126.536L268.092 126.518Z" fill="white"/>
<path d="M261.377 126.515C261.173 126.719 260.968 126.924 260.764 127.131L260.788 127.155C260.867 126.826 261.075 126.624 261.402 126.542L261.377 126.518V126.515Z" fill="white"/>
<path d="M265.046 124.695C264.966 124.787 264.89 124.882 264.811 124.973C264.82 124.915 264.811 124.839 264.841 124.808C264.896 124.756 264.979 124.735 265.049 124.698H265.046V124.695Z" fill="white"/>
<path d="M262.592 124.689C262.503 125.007 262.308 125.22 261.981 125.3L262.006 125.327C262.21 125.123 262.412 124.921 262.616 124.717L262.592 124.692V124.689Z" fill="white"/>
<path d="M263.205 124.073C263.001 124.277 262.796 124.482 262.592 124.686L262.616 124.711C262.821 124.506 263.025 124.302 263.23 124.097L263.205 124.073Z" fill="white"/>
<path d="M263.84 122.882C263.923 122.794 264.005 122.705 264.09 122.617C264.075 122.672 264.072 122.748 264.036 122.775C263.975 122.821 263.889 122.83 263.813 122.858L263.84 122.885V122.882Z" fill="white"/>
<path d="M105.731 64.904C105.637 64.9986 105.542 65.0963 105.448 65.1909C105.457 65.1237 105.441 65.0352 105.478 64.9986C105.536 64.9406 105.631 64.9192 105.71 64.8795L105.731 64.9009V64.904Z" fill="white"/>
<path d="M105.71 64.8795C105.811 64.791 105.911 64.7025 106.009 64.6171C105.997 64.6811 106.003 64.7697 105.966 64.8032C105.905 64.8551 105.811 64.8734 105.731 64.904L105.71 64.8826V64.8795Z" fill="white"/>
<path d="M77.0338 70.9994C77.3909 68.7499 77.2505 66.4118 78.2456 64.2782L78.2547 64.2874C78.0075 66.5522 78.9903 69.0429 77.0247 70.9902L77.0338 70.9994Z" fill="white"/>
<path d="M75.2055 73.4412C75.23 74.3203 74.6714 74.6255 73.9236 74.7476V74.7598C74.1372 74.1158 74.5676 73.6793 75.1964 73.429L75.2086 73.4412H75.2055Z" fill="white"/>
<path d="M75.7915 72.8125C75.7854 72.2997 75.8861 71.8388 76.4081 71.5946L76.4294 71.616C76.4386 72.1288 76.3379 72.5896 75.819 72.8399L75.7915 72.8155V72.8125Z" fill="white"/>
<path d="M80.0952 61.8517C80.1227 62.3736 79.9884 62.8193 79.4817 63.0726L79.4573 63.0482C79.442 62.5293 79.5671 62.0837 80.0738 61.8303L80.0982 61.8547L80.0952 61.8517Z" fill="white"/>
<path d="M81.9206 59.4098C81.8657 59.6632 81.8077 59.9165 81.7527 60.1699C81.6459 60.1058 81.5421 60.0447 81.4353 59.9806C81.591 59.7853 81.7466 59.5899 81.9054 59.3946L81.9206 59.4068V59.4098Z" fill="white"/>
<path d="M77.0245 70.9902C76.9391 71.3046 76.759 71.5336 76.4293 71.616L76.408 71.5946C76.4995 71.2741 76.6796 71.0452 77.0337 70.9994L77.0245 70.9902Z" fill="white"/>
<path d="M75.1902 73.429C75.2818 73.1177 75.4649 72.8949 75.7915 72.8125L75.819 72.8369C75.7304 73.1543 75.5412 73.371 75.2054 73.4412L75.1932 73.429H75.1902Z" fill="white"/>
<path d="M78.8713 63.683C78.7828 64.0035 78.5997 64.2264 78.2548 64.2874L78.2456 64.2782C78.3341 63.9608 78.5234 63.7441 78.8469 63.6586L78.8713 63.683Z" fill="white"/>
<path d="M79.4788 63.0756C79.3963 63.3992 79.1979 63.6067 78.8713 63.683L78.8469 63.6586C78.9293 63.3381 79.1216 63.1214 79.4543 63.0482L79.4788 63.0726V63.0756Z" fill="white"/>
<path d="M80.0708 61.8303C80.1746 61.7418 80.2753 61.6533 80.3791 61.5648C80.3669 61.6319 80.373 61.7235 80.3333 61.7571C80.2692 61.8089 80.1746 61.8212 80.0922 61.8517L80.0708 61.8303Z" fill="white"/>
</g>
<defs>
<clipPath id="clip0_232_5522">
<rect width="272.765" height="400" fill="white"/>
</clipPath>
</defs>
</svg>
