<svg width="250" height="32" viewBox="0 0 250 32" fill="none" xmlns="http://www.w3.org/2000/svg">
<path d="M60.2482 6.9312V24.8H56.6642V13.1776L51.877 24.8H49.1634L44.3506 13.1776V24.8H40.7666V6.9312H44.837L50.5202 20.2176L56.2034 6.9312H60.2482Z" fill="#25252D"/>
<path d="M69.0652 25.0304C67.6999 25.0304 66.4711 24.7317 65.3788 24.1344C64.2865 23.52 63.4247 22.6581 62.7932 21.5488C62.1788 20.4395 61.8716 19.1595 61.8716 17.7088C61.8716 16.2581 62.1873 14.9781 62.8188 13.8688C63.4673 12.7595 64.3463 11.9061 65.4556 11.3088C66.5649 10.6944 67.8023 10.3872 69.1676 10.3872C70.5329 10.3872 71.7703 10.6944 72.8796 11.3088C73.9889 11.9061 74.8593 12.7595 75.4908 13.8688C76.1393 14.9781 76.4636 16.2581 76.4636 17.7088C76.4636 19.1595 76.1308 20.4395 75.4652 21.5488C74.8167 22.6581 73.9292 23.52 72.8028 24.1344C71.6935 24.7317 70.4476 25.0304 69.0652 25.0304ZM69.0652 21.9072C69.7137 21.9072 70.3196 21.7536 70.8828 21.4464C71.4631 21.1221 71.9239 20.6443 72.2652 20.0128C72.6065 19.3813 72.7772 18.6133 72.7772 17.7088C72.7772 16.3605 72.4188 15.328 71.702 14.6112C71.0023 13.8773 70.1404 13.5104 69.1164 13.5104C68.0924 13.5104 67.2305 13.8773 66.5308 14.6112C65.8481 15.328 65.5068 16.3605 65.5068 17.7088C65.5068 19.0571 65.8396 20.0981 66.5052 20.832C67.1879 21.5488 68.0412 21.9072 69.0652 21.9072Z" fill="#25252D"/>
<path d="M83.9822 21.4976L87.5662 10.6176H91.3806L86.1326 24.8H81.7806L76.5582 10.6176H80.3982L83.9822 21.4976Z" fill="#25252D"/>
<path d="M105.554 17.4016C105.554 17.9136 105.519 18.3744 105.451 18.784H95.0832C95.1685 19.808 95.5269 20.6101 96.1584 21.1904C96.7899 21.7707 97.5664 22.0608 98.488 22.0608C99.8192 22.0608 100.766 21.4891 101.33 20.3456H105.195C104.786 21.7109 104.001 22.8373 102.84 23.7248C101.679 24.5952 100.254 25.0304 98.5648 25.0304C97.1995 25.0304 95.9707 24.7317 94.8784 24.1344C93.8032 23.52 92.9584 22.6581 92.344 21.5488C91.7467 20.4395 91.448 19.1595 91.448 17.7088C91.448 16.2411 91.7467 14.9525 92.344 13.8432C92.9413 12.7339 93.7776 11.8805 94.8528 11.2832C95.928 10.6859 97.1653 10.3872 98.5648 10.3872C99.9131 10.3872 101.116 10.6773 102.174 11.2576C103.25 11.8379 104.077 12.6656 104.658 13.7408C105.255 14.7989 105.554 16.0192 105.554 17.4016ZM101.842 16.3776C101.825 15.456 101.492 14.7221 100.843 14.176C100.195 13.6128 99.4011 13.3312 98.4624 13.3312C97.5749 13.3312 96.824 13.6043 96.2096 14.1504C95.6123 14.6795 95.2453 15.4219 95.1088 16.3776H101.842Z" fill="#25252D"/>
<path d="M110.73 12.8192C111.19 12.0683 111.788 11.4795 112.522 11.0528C113.273 10.6261 114.126 10.4128 115.082 10.4128V14.176H114.134C113.008 14.176 112.155 14.4405 111.574 14.9696C111.011 15.4987 110.73 16.4203 110.73 17.7344V24.8H107.146V10.6176H110.73V12.8192Z" fill="#25252D"/>
<path d="M121.899 25.0304C120.738 25.0304 119.697 24.8256 118.776 24.416C117.854 23.9893 117.12 23.4176 116.574 22.7008C116.045 21.984 115.755 21.1904 115.704 20.32H119.313C119.381 20.8661 119.646 21.3184 120.107 21.6768C120.585 22.0352 121.173 22.2144 121.873 22.2144C122.556 22.2144 123.085 22.0779 123.46 21.8048C123.853 21.5317 124.049 21.1819 124.049 20.7552C124.049 20.2944 123.81 19.9531 123.332 19.7312C122.872 19.4923 122.129 19.2363 121.105 18.9632C120.047 18.7072 119.177 18.4427 118.494 18.1696C117.828 17.8965 117.248 17.4784 116.753 16.9152C116.275 16.352 116.036 15.5925 116.036 14.6368C116.036 13.8517 116.258 13.1349 116.702 12.4864C117.163 11.8379 117.811 11.3259 118.648 10.9504C119.501 10.5749 120.499 10.3872 121.643 10.3872C123.332 10.3872 124.681 10.8139 125.688 11.6672C126.695 12.5035 127.249 13.6384 127.352 15.072H123.921C123.87 14.5088 123.631 14.0651 123.204 13.7408C122.795 13.3995 122.24 13.2288 121.54 13.2288C120.892 13.2288 120.388 13.3483 120.03 13.5872C119.689 13.8261 119.518 14.1589 119.518 14.5856C119.518 15.0635 119.757 15.4304 120.235 15.6864C120.713 15.9253 121.455 16.1728 122.462 16.4288C123.486 16.6848 124.331 16.9493 124.996 17.2224C125.662 17.4955 126.234 17.9221 126.712 18.5024C127.207 19.0656 127.463 19.8165 127.48 20.7552C127.48 21.5744 127.249 22.3083 126.788 22.9568C126.345 23.6053 125.696 24.1173 124.843 24.4928C124.007 24.8512 123.025 25.0304 121.899 25.0304Z" fill="#25252D"/>
<path d="M149.757 24.8H146.173L138.058 12.5376V24.8H134.474V6.90559H138.058L146.173 19.1936V6.90559H149.757V24.8Z" fill="#25252D"/>
<path d="M165.459 17.4016C165.459 17.9136 165.424 18.3744 165.356 18.784H154.988C155.074 19.808 155.432 20.6101 156.063 21.1904C156.695 21.7707 157.471 22.0608 158.393 22.0608C159.724 22.0608 160.671 21.4891 161.235 20.3456H165.1C164.691 21.7109 163.906 22.8373 162.745 23.7248C161.584 24.5952 160.159 25.0304 158.47 25.0304C157.104 25.0304 155.876 24.7317 154.783 24.1344C153.708 23.52 152.863 22.6581 152.249 21.5488C151.652 20.4395 151.353 19.1595 151.353 17.7088C151.353 16.2411 151.652 14.9525 152.249 13.8432C152.846 12.7339 153.683 11.8805 154.758 11.2832C155.833 10.6859 157.07 10.3872 158.47 10.3872C159.818 10.3872 161.021 10.6773 162.079 11.2576C163.155 11.8379 163.982 12.6656 164.563 13.7408C165.16 14.7989 165.459 16.0192 165.459 17.4016ZM161.747 16.3776C161.73 15.456 161.397 14.7221 160.748 14.176C160.1 13.6128 159.306 13.3312 158.367 13.3312C157.48 13.3312 156.729 13.6043 156.115 14.1504C155.517 14.6795 155.15 15.4219 155.014 16.3776H161.747Z" fill="#25252D"/>
<path d="M166.129 17.6576C166.129 16.224 166.411 14.9525 166.974 13.8432C167.554 12.7339 168.331 11.8805 169.303 11.2832C170.293 10.6859 171.394 10.3872 172.606 10.3872C173.664 10.3872 174.586 10.6005 175.371 11.0272C176.173 11.4539 176.813 11.9915 177.291 12.64V10.6176H180.9V24.8H177.291V22.7264C176.83 23.392 176.19 23.9467 175.371 24.3904C174.568 24.8171 173.638 25.0304 172.58 25.0304C171.386 25.0304 170.293 24.7232 169.303 24.1088C168.331 23.4944 167.554 22.6325 166.974 21.5232C166.411 20.3968 166.129 19.1083 166.129 17.6576ZM177.291 17.7088C177.291 16.8384 177.12 16.096 176.779 15.4816C176.437 14.8501 175.976 14.3723 175.396 14.048C174.816 13.7067 174.193 13.536 173.527 13.536C172.862 13.536 172.247 13.6981 171.684 14.0224C171.121 14.3467 170.66 14.8245 170.302 15.456C169.96 16.0704 169.79 16.8043 169.79 17.6576C169.79 18.5109 169.96 19.2619 170.302 19.9104C170.66 20.5419 171.121 21.0283 171.684 21.3696C172.264 21.7109 172.879 21.8816 173.527 21.8816C174.193 21.8816 174.816 21.7195 175.396 21.3952C175.976 21.0539 176.437 20.576 176.779 19.9616C177.12 19.3301 177.291 18.5792 177.291 17.7088Z" fill="#25252D"/>
<path d="M186.961 12.8192C187.421 12.0683 188.019 11.4795 188.753 11.0528C189.504 10.6261 190.357 10.4128 191.313 10.4128V14.176H190.365C189.239 14.176 188.386 14.4405 187.805 14.9696C187.242 15.4987 186.961 16.4203 186.961 17.7344V24.8H183.377V10.6176H186.961V12.8192Z" fill="#25252D"/>
<path d="M211.987 6.9312L205.945 18.5792V24.8H202.361V18.5792L196.294 6.9312H200.339L204.179 15.0976L207.993 6.9312H211.987Z" fill="#25252D"/>
<path d="M219.327 25.0304C217.962 25.0304 216.733 24.7317 215.641 24.1344C214.549 23.52 213.687 22.6581 213.055 21.5488C212.441 20.4395 212.134 19.1595 212.134 17.7088C212.134 16.2581 212.449 14.9781 213.081 13.8688C213.729 12.7595 214.608 11.9061 215.718 11.3088C216.827 10.6944 218.064 10.3872 219.43 10.3872C220.795 10.3872 222.032 10.6944 223.142 11.3088C224.251 11.9061 225.121 12.7595 225.753 13.8688C226.401 14.9781 226.726 16.2581 226.726 17.7088C226.726 19.1595 226.393 20.4395 225.727 21.5488C225.079 22.6581 224.191 23.52 223.065 24.1344C221.955 24.7317 220.71 25.0304 219.327 25.0304ZM219.327 21.9072C219.976 21.9072 220.582 21.7536 221.145 21.4464C221.725 21.1221 222.186 20.6443 222.527 20.0128C222.869 19.3813 223.039 18.6133 223.039 17.7088C223.039 16.3605 222.681 15.328 221.964 14.6112C221.264 13.8773 220.402 13.5104 219.378 13.5104C218.354 13.5104 217.493 13.8773 216.793 14.6112C216.11 15.328 215.769 16.3605 215.769 17.7088C215.769 19.0571 216.102 20.0981 216.767 20.832C217.45 21.5488 218.303 21.9072 219.327 21.9072Z" fill="#25252D"/>
<path d="M241.719 10.6176V24.8H238.11V23.008C237.649 23.6224 237.043 24.1088 236.292 24.4672C235.558 24.8085 234.756 24.9792 233.886 24.9792C232.776 24.9792 231.795 24.7488 230.942 24.288C230.088 23.8101 229.414 23.1189 228.919 22.2144C228.442 21.2928 228.203 20.2005 228.203 18.9376V10.6176H231.787V18.4256C231.787 19.552 232.068 20.4224 232.631 21.0368C233.195 21.6341 233.963 21.9328 234.935 21.9328C235.925 21.9328 236.702 21.6341 237.265 21.0368C237.828 20.4224 238.11 19.552 238.11 18.4256V10.6176H241.719Z" fill="#25252D"/>
<path fill-rule="evenodd" clip-rule="evenodd" d="M5.93359 13.6C5.93359 6.95999 11.0003 2.66666 16.6003 2.66666C22.2003 2.66666 27.2669 6.95999 27.2669 13.6C27.2669 17.84 24.0003 22.8267 17.4936 28.5733C16.9869 29.0133 16.2269 29.0133 15.7203 28.5733C9.20026 22.8267 5.93359 17.84 5.93359 13.6ZM18.0127 7.46004C18.1627 7.61007 18.247 7.81356 18.247 8.02573V11.1392C18.247 11.3513 18.1627 11.5548 18.0127 11.7049L17.1943 12.5232C16.8819 12.8356 16.3754 12.8356 16.0629 12.5232L15.2446 11.7049C15.0946 11.5548 15.0103 11.3513 15.0103 11.1392V8.02573C15.0103 7.81356 15.0946 7.61007 15.2446 7.46005L16.0629 6.64168C16.3754 6.32926 16.8819 6.32926 17.1943 6.64168L18.0127 7.46004ZM18.0127 15.5519C18.1627 15.7019 18.247 15.9054 18.247 16.1175V19.231C18.247 19.4432 18.1627 19.6466 18.0127 19.7967L17.1943 20.615C16.8819 20.9275 16.3754 20.9275 16.0629 20.615L15.2446 19.7967C15.0946 19.6466 15.0103 19.4432 15.0103 19.231V16.1175C15.0103 15.9054 15.0946 15.7019 15.2446 15.5519L16.0629 14.7335C16.3754 14.4211 16.8819 14.4211 17.1943 14.7335L18.0127 15.5519ZM11.026 12.01C10.8138 12.01 10.6103 12.0943 10.4603 12.2443L9.64196 13.0627C9.32954 13.3751 9.32954 13.8816 9.64196 14.194L10.4603 15.0124C10.6103 15.1624 10.8138 15.2467 11.026 15.2467H14.1394C14.3516 15.2467 14.5551 15.1624 14.7051 15.0124L15.5235 14.194C15.8359 13.8816 15.8359 13.3751 15.5235 13.0627L14.7051 12.2443C14.5551 12.0943 14.3516 12.01 14.1394 12.01H11.026ZM18.5521 12.2443C18.7022 12.0943 18.9057 12.01 19.1178 12.01H22.2313C22.4434 12.01 22.6469 12.0943 22.797 12.2443L23.6153 13.0627C23.9277 13.3751 23.9277 13.8816 23.6153 14.194L22.797 15.0124C22.6469 15.1624 22.4434 15.2467 22.2313 15.2467H19.1178C18.9057 15.2467 18.7022 15.1624 18.5521 15.0124L17.7338 14.194C17.4214 13.8816 17.4214 13.3751 17.7338 13.0627L18.5521 12.2443Z" fill="#6B7EEC"/>
<ellipse cx="16.6003" cy="13.3333" rx="10.6667" ry="10.6667" fill="#F4795E"/>
<path fill-rule="evenodd" clip-rule="evenodd" d="M18.0128 7.46006C18.1628 7.61009 18.2471 7.81357 18.2471 8.02574V11.1392C18.2471 11.3514 18.1628 11.5548 18.0128 11.7049L17.1944 12.5232C16.882 12.8356 16.3754 12.8356 16.063 12.5232L15.2447 11.7049C15.0946 11.5548 15.0103 11.3514 15.0103 11.1392V8.02574C15.0103 7.81357 15.0946 7.61009 15.2447 7.46006L16.063 6.64169C16.3754 6.32927 16.882 6.32927 17.1944 6.64169L18.0128 7.46006ZM18.0128 15.5519C18.1628 15.7019 18.2471 15.9054 18.2471 16.1176V19.231C18.2471 19.4432 18.1628 19.6467 18.0128 19.7967L17.1944 20.615C16.882 20.9275 16.3754 20.9275 16.063 20.615L15.2447 19.7967C15.0946 19.6467 15.0103 19.4432 15.0103 19.231V16.1176C15.0103 15.9054 15.0946 15.7019 15.2447 15.5519L16.063 14.7335C16.3754 14.4211 16.882 14.4211 17.1944 14.7335L18.0128 15.5519ZM11.0261 12.01C10.8139 12.01 10.6104 12.0943 10.4604 12.2443L9.64203 13.0627C9.32961 13.3751 9.32961 13.8816 9.64203 14.1941L10.4604 15.0124C10.6104 15.1624 10.8139 15.2467 11.0261 15.2467H14.1395C14.3517 15.2467 14.5552 15.1624 14.7052 15.0124L15.5236 14.1941C15.836 13.8816 15.836 13.3751 15.5236 13.0627L14.7052 12.2443C14.5552 12.0943 14.3517 12.01 14.1395 12.01H11.0261ZM18.5522 12.2443C18.7022 12.0943 18.9057 12.01 19.1179 12.01H22.2313C22.4435 12.01 22.647 12.0943 22.797 12.2443L23.6154 13.0627C23.9278 13.3751 23.9278 13.8816 23.6154 14.1941L22.797 15.0124C22.647 15.1624 22.4435 15.2467 22.2313 15.2467H19.1179C18.9057 15.2467 18.7022 15.1624 18.5522 15.0124L17.7339 14.1941C17.4214 13.8816 17.4214 13.3751 17.7339 13.0627L18.5522 12.2443Z" fill="white"/>
</svg>
