<svg width="187" height="24" viewBox="0 0 187 24" fill="none" xmlns="http://www.w3.org/2000/svg">
<path d="M44.736 5.1984V18.6H42.048V9.8832L38.4576 18.6H36.4224L32.8128 9.8832V18.6H30.1248V5.1984H33.1776L37.44 15.1632L41.7024 5.1984H44.736Z" fill="#25252D"/>
<path d="M51.3487 18.7728C50.3247 18.7728 49.4032 18.5488 48.584 18.1008C47.7648 17.64 47.1184 16.9936 46.6448 16.1616C46.184 15.3296 45.9535 14.3696 45.9535 13.2816C45.9535 12.1936 46.1903 11.2336 46.6639 10.4016C47.1504 9.5696 47.8095 8.9296 48.6416 8.4816C49.4735 8.0208 50.4016 7.7904 51.4256 7.7904C52.4496 7.7904 53.3776 8.0208 54.2096 8.4816C55.0416 8.9296 55.6944 9.5696 56.1679 10.4016C56.6544 11.2336 56.8976 12.1936 56.8976 13.2816C56.8976 14.3696 56.6479 15.3296 56.1488 16.1616C55.6623 16.9936 54.9967 17.64 54.152 18.1008C53.32 18.5488 52.3855 18.7728 51.3487 18.7728ZM51.3487 16.4304C51.8351 16.4304 52.2895 16.3152 52.7119 16.0848C53.1472 15.8416 53.4928 15.4832 53.7487 15.0096C54.0047 14.536 54.1327 13.96 54.1327 13.2816C54.1327 12.2704 53.864 11.496 53.3264 10.9584C52.8015 10.408 52.1551 10.1328 51.3871 10.1328C50.6192 10.1328 49.9727 10.408 49.448 10.9584C48.936 11.496 48.68 12.2704 48.68 13.2816C48.68 14.2928 48.9296 15.0736 49.4287 15.624C49.9408 16.1616 50.5807 16.4304 51.3487 16.4304Z" fill="#25252D"/>
<path d="M62.5365 16.1232L65.2245 7.9632H68.0853L64.1493 18.6H60.8853L56.9685 7.9632H59.8485L62.5365 16.1232Z" fill="#25252D"/>
<path d="M78.7151 13.0512C78.7151 13.4352 78.6894 13.7808 78.6382 14.088H70.8623C70.9263 14.856 71.1951 15.4576 71.6687 15.8928C72.1423 16.328 72.7247 16.5456 73.4159 16.5456C74.4143 16.5456 75.1247 16.1168 75.5471 15.2592H78.4463C78.1391 16.2832 77.5503 17.128 76.6798 17.7936C75.8094 18.4464 74.7407 18.7728 73.4735 18.7728C72.4495 18.7728 71.5279 18.5488 70.7087 18.1008C69.9023 17.64 69.2687 16.9936 68.8079 16.1616C68.3599 15.3296 68.1359 14.3696 68.1359 13.2816C68.1359 12.1808 68.3599 11.2144 68.8079 10.3824C69.2559 9.5504 69.883 8.9104 70.6894 8.4624C71.4958 8.0144 72.4239 7.7904 73.4735 7.7904C74.4847 7.7904 75.3871 8.008 76.1807 8.4432C76.9871 8.8784 77.6079 9.4992 78.0431 10.3056C78.4911 11.0992 78.7151 12.0144 78.7151 13.0512ZM75.9311 12.2832C75.9183 11.592 75.6687 11.0416 75.1823 10.632C74.6959 10.2096 74.1007 9.9984 73.3966 9.9984C72.731 9.9984 72.1679 10.2032 71.7071 10.6128C71.2591 11.0096 70.9839 11.5664 70.8815 12.2832H75.9311Z" fill="#25252D"/>
<path d="M82.597 9.6144C82.9426 9.0512 83.3906 8.6096 83.941 8.2896C84.5042 7.9696 85.1442 7.8096 85.861 7.8096V10.632H85.1506C84.3058 10.632 83.6658 10.8304 83.2306 11.2272C82.8083 11.624 82.597 12.3152 82.597 13.3008V18.6H79.909V7.9632H82.597V9.6144Z" fill="#25252D"/>
<path d="M90.9739 18.7728C90.1035 18.7728 89.3227 18.6192 88.6315 18.312C87.9403 17.992 87.3899 17.5632 86.9803 17.0256C86.5835 16.488 86.3659 15.8928 86.3275 15.24H89.0347C89.0859 15.6496 89.2843 15.9888 89.6299 16.2576C89.9883 16.5264 90.4299 16.6608 90.9547 16.6608C91.4667 16.6608 91.8635 16.5584 92.1451 16.3536C92.4395 16.1488 92.5867 15.8864 92.5867 15.5664C92.5867 15.2208 92.4076 14.9648 92.0491 14.7984C91.7035 14.6192 91.1467 14.4272 90.3787 14.2224C89.5851 14.0304 88.9323 13.832 88.4203 13.6272C87.9211 13.4224 87.4859 13.1088 87.1147 12.6864C86.7563 12.264 86.5771 11.6944 86.5771 10.9776C86.5771 10.3888 86.7435 9.8512 87.0763 9.3648C87.4219 8.8784 87.9083 8.4944 88.5355 8.2128C89.1755 7.9312 89.9244 7.7904 90.7819 7.7904C92.0491 7.7904 93.0603 8.1104 93.8155 8.7504C94.5707 9.3776 94.9867 10.2288 95.0635 11.304H92.4907C92.4523 10.8816 92.2731 10.5488 91.9531 10.3056C91.6459 10.0496 91.2299 9.9216 90.7051 9.9216C90.2187 9.9216 89.8411 10.0112 89.5723 10.1904C89.3163 10.3696 89.1883 10.6192 89.1883 10.9392C89.1883 11.2976 89.3675 11.5728 89.7259 11.7648C90.0844 11.944 90.6411 12.1296 91.3963 12.3216C92.1643 12.5136 92.7979 12.712 93.2971 12.9168C93.7963 13.1216 94.2252 13.4416 94.5835 13.8768C94.9548 14.2992 95.1468 14.8624 95.1595 15.5664C95.1595 16.1808 94.9867 16.7312 94.6412 17.2176C94.3083 17.704 93.8219 18.088 93.1819 18.3696C92.5547 18.6384 91.8187 18.7728 90.9739 18.7728Z" fill="#25252D"/>
<path d="M111.867 18.6H109.179L103.093 9.4032V18.6H100.405V5.1792H103.093L109.179 14.3952V5.1792H111.867V18.6Z" fill="#25252D"/>
<path d="M123.644 13.0512C123.644 13.4352 123.618 13.7808 123.567 14.088H115.791C115.855 14.856 116.124 15.4576 116.597 15.8928C117.071 16.328 117.653 16.5456 118.345 16.5456C119.343 16.5456 120.053 16.1168 120.476 15.2592H123.375C123.068 16.2832 122.479 17.128 121.609 17.7936C120.738 18.4464 119.669 18.7728 118.402 18.7728C117.378 18.7728 116.457 18.5488 115.637 18.1008C114.831 17.64 114.197 16.9936 113.737 16.1616C113.289 15.3296 113.065 14.3696 113.065 13.2816C113.065 12.1808 113.289 11.2144 113.737 10.3824C114.185 9.5504 114.812 8.9104 115.618 8.4624C116.425 8.0144 117.353 7.7904 118.402 7.7904C119.413 7.7904 120.316 8.008 121.109 8.4432C121.916 8.8784 122.537 9.4992 122.972 10.3056C123.42 11.0992 123.644 12.0144 123.644 13.0512ZM120.86 12.2832C120.847 11.592 120.597 11.0416 120.111 10.632C119.625 10.2096 119.029 9.9984 118.325 9.9984C117.66 9.9984 117.097 10.2032 116.636 10.6128C116.188 11.0096 115.913 11.5664 115.81 12.2832H120.86Z" fill="#25252D"/>
<path d="M124.147 13.2432C124.147 12.168 124.358 11.2144 124.78 10.3824C125.215 9.5504 125.798 8.9104 126.527 8.4624C127.27 8.0144 128.095 7.7904 129.004 7.7904C129.798 7.7904 130.489 7.9504 131.078 8.2704C131.679 8.5904 132.159 8.9936 132.518 9.48V7.9632H135.225V18.6H132.518V17.0448C132.172 17.544 131.692 17.96 131.078 18.2928C130.476 18.6128 129.779 18.7728 128.985 18.7728C128.089 18.7728 127.27 18.5424 126.527 18.0816C125.798 17.6208 125.215 16.9744 124.78 16.1424C124.358 15.2976 124.147 14.3312 124.147 13.2432ZM132.518 13.2816C132.518 12.6288 132.39 12.072 132.134 11.6112C131.878 11.1376 131.532 10.7792 131.097 10.536C130.662 10.28 130.195 10.152 129.695 10.152C129.196 10.152 128.735 10.2736 128.313 10.5168C127.891 10.76 127.545 11.1184 127.276 11.592C127.02 12.0528 126.892 12.6032 126.892 13.2432C126.892 13.8832 127.02 14.4464 127.276 14.9328C127.545 15.4064 127.891 15.7712 128.313 16.0272C128.748 16.2832 129.209 16.4112 129.695 16.4112C130.195 16.4112 130.662 16.2896 131.097 16.0464C131.532 15.7904 131.878 15.432 132.134 14.9712C132.39 14.4976 132.518 13.9344 132.518 13.2816Z" fill="#25252D"/>
<path d="M139.77 9.6144C140.116 9.0512 140.564 8.6096 141.114 8.2896C141.677 7.9696 142.317 7.8096 143.034 7.8096V10.632H142.324C141.479 10.632 140.839 10.8304 140.404 11.2272C139.981 11.624 139.77 12.3152 139.77 13.3008V18.6H137.082V7.9632H139.77V9.6144Z" fill="#25252D"/>
<path d="M158.54 5.1984L154.009 13.9344V18.6H151.321V13.9344L146.77 5.1984H149.804L152.684 11.3232L155.545 5.1984H158.54Z" fill="#25252D"/>
<path d="M164.045 18.7728C163.021 18.7728 162.1 18.5488 161.28 18.1008C160.461 17.64 159.815 16.9936 159.341 16.1616C158.88 15.3296 158.65 14.3696 158.65 13.2816C158.65 12.1936 158.887 11.2336 159.36 10.4016C159.847 9.5696 160.506 8.9296 161.338 8.4816C162.17 8.0208 163.098 7.7904 164.122 7.7904C165.146 7.7904 166.074 8.0208 166.906 8.4816C167.738 8.9296 168.391 9.5696 168.864 10.4016C169.351 11.2336 169.594 12.1936 169.594 13.2816C169.594 14.3696 169.344 15.3296 168.845 16.1616C168.359 16.9936 167.693 17.64 166.848 18.1008C166.016 18.5488 165.082 18.7728 164.045 18.7728ZM164.045 16.4304C164.532 16.4304 164.986 16.3152 165.408 16.0848C165.844 15.8416 166.189 15.4832 166.445 15.0096C166.701 14.536 166.829 13.96 166.829 13.2816C166.829 12.2704 166.56 11.496 166.023 10.9584C165.498 10.408 164.852 10.1328 164.084 10.1328C163.316 10.1328 162.669 10.408 162.144 10.9584C161.632 11.496 161.376 12.2704 161.376 13.2816C161.376 14.2928 161.626 15.0736 162.125 15.624C162.637 16.1616 163.277 16.4304 164.045 16.4304Z" fill="#25252D"/>
<path d="M180.839 7.9632V18.6H178.132V17.256C177.787 17.7168 177.332 18.0816 176.769 18.3504C176.219 18.6064 175.617 18.7344 174.964 18.7344C174.132 18.7344 173.396 18.5616 172.756 18.216C172.116 17.8576 171.611 17.3392 171.239 16.6608C170.881 15.9696 170.702 15.1504 170.702 14.2032V7.9632H173.39V13.8192C173.39 14.664 173.601 15.3168 174.023 15.7776C174.446 16.2256 175.022 16.4496 175.751 16.4496C176.494 16.4496 177.076 16.2256 177.499 15.7776C177.921 15.3168 178.132 14.664 178.132 13.8192V7.9632H180.839Z" fill="#25252D"/>
<path fill-rule="evenodd" clip-rule="evenodd" d="M4 10.2C4 5.22 7.8 2 12 2C16.2 2 20 5.22 20 10.2C20 13.38 17.55 17.12 12.67 21.43C12.29 21.76 11.72 21.76 11.34 21.43C6.45 17.12 4 13.38 4 10.2ZM13.0593 5.59504C13.1718 5.70756 13.235 5.86018 13.235 6.01931V8.35438C13.235 8.51351 13.1718 8.66613 13.0593 8.77865L12.4455 9.39242C12.2112 9.62674 11.8313 9.62674 11.597 9.39242L10.9832 8.77865C10.8707 8.66613 10.8075 8.51351 10.8075 8.35438V6.0193C10.8075 5.86018 10.8707 5.70756 10.9832 5.59504L11.597 4.98127C11.8313 4.74695 12.2112 4.74695 12.4455 4.98127L13.0593 5.59504ZM13.0593 11.6639C13.1718 11.7764 13.235 11.929 13.235 12.0882V14.4232C13.235 14.5824 13.1718 14.735 13.0593 14.8475L12.4455 15.4613C12.2112 15.6956 11.8313 15.6956 11.597 15.4613L10.9832 14.8475C10.8707 14.735 10.8075 14.5824 10.8075 14.4232V12.0882C10.8075 11.929 10.8707 11.7764 10.9832 11.6639L11.597 11.0501C11.8313 10.8158 12.2112 10.8158 12.4455 11.0501L13.0593 11.6639ZM7.81931 9.0075C7.66018 9.0075 7.50757 9.07072 7.39504 9.18324L6.78127 9.79701C6.54696 10.0313 6.54696 10.4112 6.78127 10.6455L7.39504 11.2593C7.50757 11.3718 7.66018 11.435 7.81931 11.435H10.1544C10.3135 11.435 10.4661 11.3718 10.5787 11.2593L11.1924 10.6455C11.4267 10.4112 11.4267 10.0313 11.1924 9.79701L10.5787 9.18324C10.4661 9.07072 10.3135 9.0075 10.1544 9.0075H7.81931ZM13.4639 9.18324C13.5764 9.07072 13.729 9.0075 13.8882 9.0075H16.2233C16.3824 9.0075 16.535 9.07072 16.6475 9.18324L17.2613 9.79701C17.4956 10.0313 17.4956 10.4112 17.2613 10.6455L16.6475 11.2593C16.535 11.3718 16.3824 11.435 16.2233 11.435H13.8882C13.729 11.435 13.5764 11.3718 13.4639 11.2593L12.8501 10.6455C12.6158 10.4112 12.6158 10.0313 12.8501 9.79701L13.4639 9.18324Z" fill="#6B7EEC"/>
<circle cx="12" cy="10" r="8" fill="#F4795E"/>
<path fill-rule="evenodd" clip-rule="evenodd" d="M13.0593 5.59517C13.1718 5.70769 13.235 5.86031 13.235 6.01944V8.35452C13.235 8.51365 13.1718 8.66626 13.0593 8.77878L12.4455 9.39255C12.2112 9.62687 11.8313 9.62687 11.597 9.39255L10.9832 8.77878C10.8707 8.66626 10.8075 8.51365 10.8075 8.35452V6.01944C10.8075 5.86031 10.8707 5.70769 10.9832 5.59517L11.597 4.9814C11.8313 4.74709 12.2112 4.74709 12.4455 4.9814L13.0593 5.59517ZM13.0593 11.664C13.1718 11.7766 13.235 11.9292 13.235 12.0883V14.4234C13.235 14.5825 13.1718 14.7351 13.0593 14.8476L12.4455 15.4614C12.2112 15.6957 11.8313 15.6957 11.597 15.4614L10.9832 14.8476C10.8707 14.7351 10.8075 14.5825 10.8075 14.4234V12.0883C10.8075 11.9292 10.8707 11.7766 10.9832 11.664L11.597 11.0503C11.8313 10.8159 12.2112 10.8159 12.4455 11.0503L13.0593 11.664ZM7.8193 9.00763C7.66017 9.00763 7.50756 9.07085 7.39504 9.18337L6.78127 9.79714C6.54695 10.0315 6.54695 10.4114 6.78127 10.6457L7.39504 11.2594C7.50756 11.372 7.66017 11.4352 7.8193 11.4352H10.1544C10.3135 11.4352 10.4661 11.372 10.5786 11.2594L11.1924 10.6457C11.4267 10.4114 11.4267 10.0315 11.1924 9.79714L10.5786 9.18337C10.4661 9.07085 10.3135 9.00763 10.1544 9.00763H7.8193ZM13.4639 9.18337C13.5764 9.07085 13.729 9.00763 13.8882 9.00763H16.2233C16.3824 9.00763 16.535 9.07085 16.6475 9.18337L17.2613 9.79714C17.4956 10.0315 17.4956 10.4114 17.2613 10.6457L16.6475 11.2594C16.535 11.372 16.3824 11.4352 16.2233 11.4352H13.8882C13.729 11.4352 13.5764 11.372 13.4639 11.2594L12.8501 10.6457C12.6158 10.4114 12.6158 10.0315 12.8501 9.79714L13.4639 9.18337Z" fill="white"/>
</svg>
