<svg width="16" height="16" viewBox="0 0 16 16" fill="none" xmlns="http://www.w3.org/2000/svg">
<path d="M8.00004 1.33337C4.32004 1.33337 1.33337 4.32004 1.33337 8.00004C1.33337 11.68 4.32004 14.6667 8.00004 14.6667C11.68 14.6667 14.6667 11.68 14.6667 8.00004C14.6667 4.32004 11.68 1.33337 8.00004 1.33337ZM8.00004 13.3334C5.05337 13.3334 2.66671 10.9467 2.66671 8.00004C2.66671 6.76671 3.08671 5.63337 3.79337 4.73337L11.2667 12.2067C10.3667 12.9134 9.23337 13.3334 8.00004 13.3334ZM12.2067 11.2667L4.73337 3.79337C5.63337 3.08671 6.76671 2.66671 8.00004 2.66671C10.9467 2.66671 13.3334 5.05337 13.3334 8.00004C13.3334 9.23337 12.9134 10.3667 12.2067 11.2667Z" fill="#F4795E"/>
</svg>
