<svg width="20" height="20" viewBox="0 0 20 20" fill="none" xmlns="http://www.w3.org/2000/svg">
<path d="M9.99169 1.66663C5.39169 1.66663 1.66669 5.39996 1.66669 9.99996C1.66669 14.6 5.39169 18.3333 9.99169 18.3333C14.6 18.3333 18.3334 14.6 18.3334 9.99996C18.3334 5.39996 14.6 1.66663 9.99169 1.66663ZM12.6834 14.4916L10 12.875L7.31669 14.4916C7.00002 14.6833 6.60835 14.4 6.69169 14.0416L7.40002 10.9916L5.04169 8.94996C4.76669 8.70829 4.91669 8.24996 5.28335 8.21663L8.40002 7.94996L9.61669 5.07496C9.75835 4.73329 10.2417 4.73329 10.3834 5.07496L11.6 7.94163L14.7167 8.20829C15.0834 8.24163 15.2334 8.69996 14.95 8.94163L12.5917 10.9833L13.3 14.0416C13.3834 14.4 13 14.6833 12.6834 14.4916Z" fill="#F4795E"/>
</svg>
