<svg width="20" height="20" viewBox="0 0 20 20" fill="none" xmlns="http://www.w3.org/2000/svg">
<path d="M9.99998 1.66663C6.49998 1.66663 3.33331 4.34996 3.33331 8.49996C3.33331 11.15 5.37498 14.2666 9.44998 17.8583C9.76665 18.1333 10.2416 18.1333 10.5583 17.8583C14.625 14.2666 16.6666 11.15 16.6666 8.49996C16.6666 4.34996 13.5 1.66663 9.99998 1.66663ZM9.99998 9.99996C9.08331 9.99996 8.33331 9.24996 8.33331 8.33329C8.33331 7.41663 9.08331 6.66663 9.99998 6.66663C10.9166 6.66663 11.6666 7.41663 11.6666 8.33329C11.6666 9.24996 10.9166 9.99996 9.99998 9.99996Z" fill="#D3D3D5"/>
</svg>
