<svg width="16" height="16" viewBox="0 0 16 16" fill="none" xmlns="http://www.w3.org/2000/svg">
<path d="M13.3333 1.33337H2.66665C1.93331 1.33337 1.33331 1.93337 1.33331 2.66671V13.06C1.33331 13.6534 2.05331 13.9534 2.47331 13.5334L3.99998 12H13.3333C14.0666 12 14.6666 11.4 14.6666 10.6667V2.66671C14.6666 1.93337 14.0666 1.33337 13.3333 1.33337ZM9.04665 7.71337L8.29998 9.34004C8.17998 9.60004 7.81331 9.60004 7.69331 9.34004L6.94665 7.71337L5.31998 6.96671C5.05998 6.84671 5.05998 6.48004 5.31998 6.36004L6.94665 5.61337L7.69331 3.98671C7.81331 3.72671 8.17998 3.72671 8.29998 3.98671L9.04665 5.61337L10.6733 6.36004C10.9333 6.48004 10.9333 6.84671 10.6733 6.96671L9.04665 7.71337Z" fill="#F4795E"/>
</svg>
