<svg width="40" height="40" viewBox="0 0 40 40" fill="none" xmlns="http://www.w3.org/2000/svg">
<rect x="1" y="1" width="38" height="38" rx="19" fill="white"/>
<path d="M20 10C15.8 10 12 13.22 12 18.2C12 21.38 14.45 25.12 19.34 29.43C19.72 29.76 20.29 29.76 20.67 29.43C25.55 25.12 28 21.38 28 18.2C28 13.22 24.2 10 20 10ZM20 20C18.9 20 18 19.1 18 18C18 16.9 18.9 16 20 16C21.1 16 22 16.9 22 18C22 19.1 21.1 20 20 20Z" fill="#6B7EEC"/>
<rect x="1" y="1" width="38" height="38" rx="19" stroke="#6B7EEC" stroke-width="2"/>
</svg>
