<svg width="35" height="24" viewBox="0 0 35 24" fill="none" xmlns="http://www.w3.org/2000/svg">
<rect x="0.741211" y="0.5" width="33.7586" height="23" rx="3.5" fill="white" stroke="#E5E5E6"/>
<path d="M20.8029 17.3862H14.5996V6.30762H20.8029V17.3862Z" fill="#FF5F00"/>
<path d="M14.9968 11.8459C14.9968 9.59854 16.0557 7.59668 17.7046 6.30659C16.4988 5.36322 14.977 4.80016 13.3231 4.80016C9.40774 4.80016 6.23389 7.95458 6.23389 11.8459C6.23389 15.7372 9.40774 18.8916 13.3231 18.8916C14.977 18.8916 16.4988 18.3285 17.7046 17.3852C16.0557 16.0951 14.9968 14.0932 14.9968 11.8459" fill="#EB001B"/>
<path d="M29.1694 11.8459C29.1694 15.7372 25.9955 18.8916 22.0802 18.8916C20.4263 18.8916 18.9045 18.3285 17.6982 17.3852C19.3476 16.0951 20.4065 14.0932 20.4065 11.8459C20.4065 9.59854 19.3476 7.59668 17.6982 6.30659C18.9045 5.36322 20.4263 4.80016 22.0802 4.80016C25.9955 4.80016 29.1694 7.95458 29.1694 11.8459" fill="#F79E1B"/>
</svg>
