<svg width="24" height="24" viewBox="0 0 24 24" fill="none" xmlns="http://www.w3.org/2000/svg">
<path d="M15.0005 10.6V5C15.0005 3.34 13.6605 2 12.0005 2C10.4605 2 9.21047 3.16 9.04047 4.65L15.0005 10.6ZM18.0805 11C17.6705 11 17.3105 11.3 17.2505 11.71C17.2005 12.03 17.1305 12.35 17.0305 12.64L18.3005 13.91C18.6005 13.31 18.8205 12.66 18.9305 11.97C19.0005 11.46 18.6005 11 18.0805 11ZM3.71047 3.56C3.32047 3.95 3.32047 4.58 3.71047 4.97L9.00047 10.27V10.7C9.00047 11.89 9.60047 13.02 10.6305 13.61C11.3805 14.04 12.0405 14.05 12.6505 13.92L14.3105 15.58C13.6005 15.91 12.8105 16.1 12.0005 16.1C9.46047 16.1 7.12047 14.33 6.75047 11.71C6.69047 11.3 6.33047 11 5.92047 11C5.40047 11 5.00047 11.46 5.07047 11.97C5.53047 14.93 8.03047 17.27 11.0005 17.72V20C11.0005 20.55 11.4505 21 12.0005 21C12.5505 21 13.0005 20.55 13.0005 20V17.72C13.9105 17.59 14.7705 17.27 15.5505 16.82L19.0405 20.31C19.4305 20.7 20.0605 20.7 20.4505 20.31C20.8405 19.92 20.8405 19.29 20.4505 18.9L5.12047 3.56C4.73047 3.17 4.10047 3.17 3.71047 3.56Z" fill="white"/>
</svg>
