<svg width="25" height="24" viewBox="0 0 25 24" fill="none" xmlns="http://www.w3.org/2000/svg">
<path d="M18.8002 5.70973C18.4102 5.31973 17.7802 5.31973 17.3902 5.70973L12.5002 10.5897L7.61022 5.69973C7.22022 5.30973 6.59021 5.30973 6.20021 5.69973C5.81021 6.08973 5.81021 6.71973 6.20021 7.10973L11.0902 11.9997L6.20021 16.8897C5.81021 17.2797 5.81021 17.9097 6.20021 18.2997C6.59021 18.6897 7.22022 18.6897 7.61022 18.2997L12.5002 13.4097L17.3902 18.2997C17.7802 18.6897 18.4102 18.6897 18.8002 18.2997C19.1902 17.9097 19.1902 17.2797 18.8002 16.8897L13.9102 11.9997L18.8002 7.10973C19.1802 6.72973 19.1802 6.08973 18.8002 5.70973Z" fill="#A3A3A7"/>
</svg>
