<svg width="24" height="24" viewBox="0 0 24 24" fill="none" xmlns="http://www.w3.org/2000/svg">
<path d="M23.0898 12.1925C16.7598 6.6025 7.22983 6.6025 0.909831 12.1925C0.0698313 12.9325 0.0698313 14.2425 0.859831 15.0325L2.05983 16.2325C2.76983 16.9425 3.89983 17.0025 4.67983 16.3825L6.64983 14.8125C7.11983 14.4425 7.39983 13.8725 7.39983 13.2625V10.6925C10.3798 9.7225 13.6098 9.7125 16.5998 10.6925V13.2725C16.5998 13.8725 16.8798 14.4425 17.3498 14.8225L19.3098 16.3825C20.0998 17.0025 21.2198 16.9425 21.9298 16.2325L23.1298 15.0325C23.9298 14.2425 23.9198 12.9325 23.0898 12.1925Z" fill="white"/>
</svg>
