<svg width="16" height="16" viewBox="0 0 16 16" fill="none" xmlns="http://www.w3.org/2000/svg">
<path d="M12 8.66683H8.66671V12.0002C8.66671 12.3668 8.36671 12.6668 8.00004 12.6668C7.63337 12.6668 7.33337 12.3668 7.33337 12.0002V8.66683H4.00004C3.63337 8.66683 3.33337 8.36683 3.33337 8.00016C3.33337 7.6335 3.63337 7.3335 4.00004 7.3335H7.33337V4.00016C7.33337 3.6335 7.63337 3.3335 8.00004 3.3335C8.36671 3.3335 8.66671 3.6335 8.66671 4.00016V7.3335H12C12.3667 7.3335 12.6667 7.6335 12.6667 8.00016C12.6667 8.36683 12.3667 8.66683 12 8.66683Z" fill="white"/>
</svg>
