<svg width="16" height="16" viewBox="0 0 16 16" fill="none" xmlns="http://www.w3.org/2000/svg">
<path d="M14 3.99996H11.8867L11.06 3.09996C10.8133 2.82663 10.4533 2.66663 10.08 2.66663H5.81333C5.92667 2.86663 6 3.08663 6 3.33329C6 4.06663 5.4 4.66663 4.66667 4.66663H4V5.33329C4 6.06663 3.4 6.66663 2.66667 6.66663C2.42 6.66663 2.2 6.59329 2 6.47996V13.3333C2 14.0666 2.6 14.6666 3.33333 14.6666H14C14.7333 14.6666 15.3333 14.0666 15.3333 13.3333V5.33329C15.3333 4.59996 14.7333 3.99996 14 3.99996ZM8.66667 12.6666C6.82667 12.6666 5.33333 11.1733 5.33333 9.33329C5.33333 7.49329 6.82667 5.99996 8.66667 5.99996C10.5067 5.99996 12 7.49329 12 9.33329C12 11.1733 10.5067 12.6666 8.66667 12.6666Z" fill="#F4795E"/>
<path d="M8.66667 11.3333C9.77124 11.3333 10.6667 10.4379 10.6667 9.33329C10.6667 8.22872 9.77124 7.33329 8.66667 7.33329C7.5621 7.33329 6.66667 8.22872 6.66667 9.33329C6.66667 10.4379 7.5621 11.3333 8.66667 11.3333Z" fill="#F4795E"/>
<path d="M2 5.33329C2 5.69996 2.3 5.99996 2.66667 5.99996C3.03333 5.99996 3.33333 5.69996 3.33333 5.33329V3.99996H4.66667C5.03333 3.99996 5.33333 3.69996 5.33333 3.33329C5.33333 2.96663 5.03333 2.66663 4.66667 2.66663H3.33333V1.33329C3.33333 0.966626 3.03333 0.666626 2.66667 0.666626C2.3 0.666626 2 0.966626 2 1.33329V2.66663H0.666667C0.3 2.66663 0 2.96663 0 3.33329C0 3.69996 0.3 3.99996 0.666667 3.99996H2V5.33329Z" fill="#F4795E"/>
</svg>
