<svg width="18" height="17" viewBox="0 0 18 17" fill="none" xmlns="http://www.w3.org/2000/svg">
<mask id="path-1-inside-1_19_5640" fill="white">
<path d="M8.99983 14.2698L13.1498 16.7798C13.9098 17.2398 14.8398 16.5598 14.6398 15.6998L13.5398 10.9798L17.2098 7.79977C17.8798 7.21977 17.5198 6.11977 16.6398 6.04977L11.8098 5.63977L9.91983 1.17977C9.57983 0.369766 8.41983 0.369766 8.07983 1.17977L6.18983 5.62977L1.35983 6.03977C0.479829 6.10977 0.119828 7.20977 0.789828 7.78977L4.45983 10.9698L3.35983 15.6898C3.15983 16.5498 4.08983 17.2298 4.84983 16.7698L8.99983 14.2698Z"/>
</mask>
<path d="M8.99983 14.2698L9.77612 12.9863L9.00138 12.5177L8.22581 12.9849L8.99983 14.2698ZM13.1498 16.7798L13.9265 15.4965L13.9261 15.4963L13.1498 16.7798ZM14.6398 15.6998L16.1008 15.36L16.1007 15.3593L14.6398 15.6998ZM13.5398 10.9798L12.5576 9.84613L11.8736 10.4388L12.079 11.3202L13.5398 10.9798ZM17.2098 7.79977L16.2281 6.66567L16.2275 6.66613L17.2098 7.79977ZM16.6398 6.04977L16.513 7.54441L16.5209 7.54504L16.6398 6.04977ZM11.8098 5.63977L10.4287 6.22503L10.7817 7.05788L11.683 7.13439L11.8098 5.63977ZM9.91983 1.17977L8.53673 1.76033L8.53872 1.76503L9.91983 1.17977ZM8.07983 1.17977L9.46048 1.76615L9.46292 1.76032L8.07983 1.17977ZM6.18983 5.62977L6.3167 7.12439L7.21718 7.04795L7.57046 6.21615L6.18983 5.62977ZM1.35983 6.03977L1.47877 7.53506L1.4867 7.53439L1.35983 6.03977ZM0.789828 7.78977L1.77211 6.65613L1.77158 6.65567L0.789828 7.78977ZM4.45983 10.9698L5.92068 11.3102L6.1261 10.4288L5.44211 9.83613L4.45983 10.9698ZM3.35983 15.6898L1.89898 15.3493L1.89882 15.35L3.35983 15.6898ZM4.84983 16.7698L4.07581 15.4849L4.07313 15.4865L4.84983 16.7698ZM8.22354 15.5533L12.3735 18.0633L13.9261 15.4963L9.77612 12.9863L8.22354 15.5533ZM12.3731 18.063C14.2743 19.2137 16.6 17.5063 16.1008 15.36L13.1788 16.0395C13.0797 15.6133 13.5454 15.2658 13.9265 15.4965L12.3731 18.063ZM16.1007 15.3593L15.0007 10.6393L12.079 11.3202L13.179 16.0402L16.1007 15.3593ZM14.5221 12.1134L18.1921 8.9334L16.2275 6.66613L12.5576 9.84613L14.5221 12.1134ZM18.1916 8.93386C19.8614 7.48835 18.974 4.7307 16.7588 4.55449L16.5209 7.54504C16.0656 7.50883 15.8983 6.95118 16.2281 6.66567L18.1916 8.93386ZM16.7667 4.55514L11.9367 4.14514L11.683 7.13439L16.513 7.54439L16.7667 4.55514ZM13.1909 5.0545L11.3009 0.594497L8.53872 1.76503L10.4287 6.22503L13.1909 5.0545ZM11.3029 0.599207C10.4483 -1.43671 7.55132 -1.43671 6.69673 0.599207L9.46292 1.76032C9.37386 1.9725 9.16094 2.07227 8.99983 2.07227C8.83872 2.07227 8.6258 1.9725 8.53673 1.76032L11.3029 0.599207ZM6.69919 0.593383L4.80919 5.04338L7.57046 6.21615L9.46046 1.76615L6.69919 0.593383ZM6.06296 4.13514L1.23296 4.54514L1.4867 7.53439L6.3167 7.12439L6.06296 4.13514ZM1.24089 4.54449C-0.974378 4.7207 -1.86173 7.47835 -0.191923 8.92386L1.77158 6.65567C2.10139 6.94118 1.93404 7.49883 1.47877 7.53504L1.24089 4.54449ZM-0.19245 8.9234L3.47755 12.1034L5.44211 9.83613L1.77211 6.65613L-0.19245 8.9234ZM2.99898 10.6293L1.89898 15.3493L4.82068 16.0302L5.92068 11.3102L2.99898 10.6293ZM1.89882 15.35C1.39968 17.4963 3.72539 19.2037 5.62653 18.053L4.07313 15.4865C4.45426 15.2558 4.91998 15.6033 4.82084 16.0295L1.89882 15.35ZM5.62385 18.0546L9.77385 15.5546L8.22581 12.9849L4.07581 15.4849L5.62385 18.0546Z" fill="#F4795E" mask="url(#path-1-inside-1_19_5640)"/>
</svg>
