<svg width="24" height="24" viewBox="0 0 24 24" fill="none" xmlns="http://www.w3.org/2000/svg">
<path d="M21.0005 14.2001V8.91008C21.0005 8.02008 19.9205 7.57008 19.2905 8.20008L17.0005 10.5001V7.00008C17.0005 6.45008 16.5505 6.00008 16.0005 6.00008H10.3905L19.3005 14.9101C19.9205 15.5401 21.0005 15.0901 21.0005 14.2001ZM2.71047 2.56008C2.32047 2.95008 2.32047 3.58008 2.71047 3.97008L4.73047 6.00008H4.00047C3.45047 6.00008 3.00047 6.45008 3.00047 7.00008V17.0001C3.00047 17.5501 3.45047 18.0001 4.00047 18.0001H16.0005C16.2105 18.0001 16.3905 17.9201 16.5505 17.8201L19.0305 20.3001C19.4205 20.6901 20.0505 20.6901 20.4405 20.3001C20.8305 19.9101 20.8305 19.2801 20.4405 18.8901L4.12047 2.56008C3.73047 2.17008 3.10047 2.17008 2.71047 2.56008Z" fill="white"/>
</svg>
