<svg width="16" height="16" viewBox="0 0 16 16" fill="none" xmlns="http://www.w3.org/2000/svg">
<path d="M12.2002 3.80653C11.9402 3.54653 11.5202 3.54653 11.2602 3.80653L8.00022 7.05986L4.74022 3.79986C4.48022 3.53986 4.06022 3.53986 3.80022 3.79986C3.54022 4.05986 3.54022 4.47986 3.80022 4.73986L7.06022 7.99986L3.80022 11.2599C3.54022 11.5199 3.54022 11.9399 3.80022 12.1999C4.06022 12.4599 4.48022 12.4599 4.74022 12.1999L8.00022 8.93986L11.2602 12.1999C11.5202 12.4599 11.9402 12.4599 12.2002 12.1999C12.4602 11.9399 12.4602 11.5199 12.2002 11.2599L8.94022 7.99986L12.2002 4.73986C12.4536 4.48653 12.4536 4.05986 12.2002 3.80653Z" fill="#F4795E"/>
</svg>
